<svg width="160" height="160" viewBox="0 0 160 160" fill="none" xmlns="http://www.w3.org/2000/svg">
<path d="M138.758 35.312C138.268 34.4928 137.756 33.6896 137.222 32.9024C130.109 22.4512 118.269 15.3024 106.762 12.0576C101.745 10.6625 96.58 9.87187 91.376 9.70241C57.4848 8.47041 45.0336 36.4128 34.1152 43.6224C23.1968 50.832 6.4384 63.1424 8.5408 88.9856C10.1408 108.64 21.3184 127.437 41.7408 135.987C44.0481 136.956 46.4157 137.773 48.8288 138.435C53.7161 139.758 58.7362 140.53 63.7952 140.736C79.2352 141.424 91.7728 137.699 104.035 128.33C106.886 126.15 109.722 123.693 113.421 123.424C116.112 123.229 118.659 124.192 115.85 126.794C112.547 129.846 116.358 135.853 124.742 131.68C138.749 124.71 144.509 109.67 147.222 94.3776C150.554 75.6032 148.941 52.2624 138.758 35.312Z" fill="#D94445"/>
<path opacity="0.7" d="M138.758 35.312C138.268 34.4928 137.756 33.6896 137.222 32.9024C130.109 22.4512 118.269 15.3024 106.762 12.0576C101.745 10.6625 96.58 9.87187 91.376 9.70241C57.4848 8.47041 45.0336 36.4128 34.1152 43.6224C23.1968 50.832 6.4384 63.1424 8.5408 88.9856C10.1408 108.64 21.3184 127.437 41.7408 135.987C44.0481 136.956 46.4157 137.773 48.8288 138.435C53.7161 139.758 58.7362 140.53 63.7952 140.736C79.2352 141.424 91.7728 137.699 104.035 128.33C106.886 126.15 109.722 123.693 113.421 123.424C116.112 123.229 118.659 124.192 115.85 126.794C112.547 129.846 116.358 135.853 124.742 131.68C138.749 124.71 144.509 109.67 147.222 94.3776C150.554 75.6032 148.941 52.2624 138.758 35.312Z" fill="white"/>
<path d="M47.9808 122.906C47.136 123.171 45.168 122.906 45.168 122.906C45.168 122.906 45.7344 121.661 45.7792 121.587C46.3104 120.73 47.8432 119.386 48.9408 119.667C49.1215 119.718 49.2895 119.806 49.434 119.925C49.5785 120.045 49.6962 120.194 49.7795 120.362C49.8628 120.53 49.9098 120.713 49.9175 120.901C49.9251 121.088 49.8933 121.275 49.824 121.45C49.552 122.198 48.7008 122.682 47.9808 122.906Z" fill="#263238"/>
<path d="M29.6512 122.355C29.632 122.355 29.4368 121.008 29.4336 120.918C29.4048 119.91 29.9424 117.946 31.008 117.568C31.1866 117.51 31.3754 117.491 31.562 117.511C31.7486 117.531 31.9289 117.59 32.0911 117.685C32.2533 117.779 32.3937 117.907 32.5032 118.059C32.6126 118.212 32.6887 118.386 32.7264 118.57C32.9152 119.344 32.4704 120.218 31.9968 120.81C31.4368 121.488 29.6512 122.355 29.6512 122.355Z" fill="#263238"/>
<path d="M29.9936 136.88C30.6528 136.963 31.9584 136.592 32.3232 136.483C32.384 137.046 32.4544 137.6 32.5536 138.144C32.5984 138.378 32.6304 138.621 32.688 138.842C32.7456 139.062 32.7968 139.29 32.848 139.51C32.9728 139.962 33.0848 140.381 33.2128 140.79C33.2736 141.005 33.3376 141.2 33.4016 141.405C33.2448 141.085 32.9888 140.573 32.96 140.528C32.4736 139.786 31.1008 138.637 30.144 138.899C29.9863 138.947 29.8405 139.027 29.7158 139.135C29.5912 139.242 29.4906 139.375 29.4206 139.524C29.3506 139.673 29.3127 139.835 29.3094 140C29.3062 140.165 29.3376 140.328 29.4016 140.48C29.6544 141.12 30.416 141.542 31.0528 141.725C31.7536 141.926 33.2928 141.706 33.4848 141.677C33.6448 142.176 33.8048 142.662 33.9584 143.114C34.0608 143.411 34.16 143.69 34.256 143.962H34.896C34.768 143.642 34.6368 143.286 34.4992 142.915C34.3616 142.544 34.1984 142.08 34.0448 141.635C34.2176 141.562 35.5552 140.995 36.0928 140.474C36.5186 140.738 36.9599 140.976 37.4144 141.187C37.2672 141.693 37.1328 142.186 37.0144 142.646C36.896 143.107 36.7872 143.546 36.6944 143.962H37.3344C37.4144 143.587 37.5008 143.203 37.5968 142.787C37.6928 142.371 37.808 141.923 37.9168 141.469C38.1056 141.504 39.6384 141.789 40.3456 141.616C40.9856 141.459 41.7664 141.078 42.0416 140.435C42.1102 140.287 42.147 140.126 42.1497 139.962C42.1525 139.799 42.121 139.637 42.0575 139.486C41.9939 139.335 41.8996 139.2 41.7806 139.088C41.6616 138.976 41.5205 138.89 41.3664 138.835C40.4064 138.538 39.0016 139.629 38.4864 140.352C38.4544 140.4 38.128 140.992 37.968 141.293C38.0384 141.018 38.112 140.746 38.192 140.461C38.304 140.051 38.4352 139.619 38.5632 139.203L38.784 138.563C38.8544 138.339 38.9504 138.138 39.0336 137.923C39.1616 137.603 39.3088 137.283 39.456 136.963C39.8656 137.101 41.0784 137.491 41.7184 137.437C42.3584 137.382 43.2032 137.117 43.5744 136.528C43.6669 136.391 43.7296 136.237 43.7584 136.074C43.7872 135.911 43.7815 135.745 43.7417 135.584C43.7018 135.424 43.6288 135.274 43.5272 135.144C43.4256 135.014 43.2978 134.906 43.152 134.829C42.2592 134.39 40.6944 135.258 40.0768 135.894C40.0544 135.914 39.9392 136.061 39.8016 136.24C39.9552 135.92 40.1216 135.626 40.272 135.322C40.7392 134.458 41.232 133.594 41.744 132.723L42.064 132.179C42.4096 132.298 43.7216 132.73 44.3904 132.672C45.0592 132.614 45.8752 132.352 46.2464 131.763C46.3388 131.627 46.4015 131.472 46.4303 131.31C46.4591 131.148 46.4533 130.981 46.4135 130.821C46.3737 130.661 46.3006 130.511 46.199 130.381C46.0974 130.251 45.9697 130.144 45.824 130.067C44.9312 129.629 43.3664 130.493 42.7488 131.13C42.7264 131.152 42.5856 131.331 42.4288 131.53C42.6944 131.053 42.9536 130.57 43.1968 130.093C43.6168 129.265 43.9814 128.409 44.288 127.533C44.4096 127.578 45.936 128.118 46.6784 128.051C47.3408 127.994 48.1632 127.731 48.5376 127.142C48.6299 127.006 48.6924 126.851 48.7209 126.689C48.7495 126.526 48.7435 126.359 48.7034 126.199C48.6632 126.039 48.5898 125.89 48.4879 125.76C48.386 125.63 48.2579 125.523 48.112 125.446C47.2224 125.008 45.6544 125.872 45.0368 126.509C44.992 126.554 44.496 127.197 44.3264 127.434V127.405C44.6083 126.539 44.8108 125.649 44.9312 124.746C45.0456 123.942 45.1119 123.132 45.1296 122.32C45.1552 121.565 45.1296 120.877 45.1072 120.266C45.0912 119.946 45.0688 119.626 45.0464 119.35H45.0624C45.0624 119.35 45.4784 118.221 45.4944 118.147C45.6896 117.283 45.5584 115.498 44.704 114.989C44.5597 114.909 44.4003 114.86 44.236 114.846C44.0718 114.832 43.9064 114.853 43.7506 114.907C43.5949 114.961 43.4523 115.047 43.332 115.16C43.2118 115.273 43.1166 115.41 43.0528 115.562C42.7584 116.202 42.992 117.027 43.3056 117.613C43.6192 118.198 44.7232 119.085 44.9984 119.299C45.0176 119.594 45.0336 119.907 45.0432 120.259C45.0432 120.87 45.0624 121.558 45.0208 122.31C45.0208 122.509 44.992 122.723 44.976 122.931C44.928 122.576 44.8576 122.086 44.8448 122.042C44.6208 121.184 43.68 119.658 42.6912 119.603C42.525 119.598 42.3596 119.628 42.2059 119.692C42.0522 119.755 41.9138 119.851 41.7998 119.972C41.6857 120.093 41.5987 120.236 41.5444 120.394C41.4901 120.551 41.4698 120.718 41.4848 120.883C41.5168 121.584 42.1088 122.214 42.656 122.589C43.2032 122.963 44.64 123.251 44.9504 123.306C44.9088 123.766 44.8544 124.24 44.7712 124.73C44.6369 125.62 44.4227 126.496 44.1312 127.347H44.0768C44.0768 127.027 44.048 126.314 44.0416 126.256C43.9104 125.376 43.1456 123.757 42.1664 123.594C42.003 123.571 41.8367 123.583 41.6783 123.629C41.5199 123.675 41.373 123.754 41.2471 123.861C41.1212 123.967 41.0192 124.099 40.9477 124.248C40.8762 124.396 40.8367 124.558 40.832 124.723C40.784 125.424 41.3056 126.112 41.792 126.547C42.3712 127.043 43.9872 127.507 44.048 127.53C43.7312 128.367 43.3603 129.182 42.9376 129.971C42.6176 130.557 42.2976 131.139 41.9456 131.718C41.9456 131.485 41.9168 130.563 41.9072 130.496C41.7792 129.619 41.0144 128 40.0352 127.837C39.8739 127.818 39.7104 127.832 39.5549 127.879C39.3995 127.926 39.2555 128.005 39.1319 128.111C39.0084 128.216 38.908 128.346 38.8372 128.492C38.7663 128.638 38.7264 128.798 38.72 128.96C38.6752 129.658 39.1936 130.349 39.696 130.781C40.2592 131.267 41.808 131.722 41.936 131.76C41.7792 132.022 41.616 132.288 41.4624 132.55C40.944 133.408 40.4192 134.262 39.9296 135.126C39.76 135.424 39.6096 135.725 39.4432 136.026C39.4432 135.674 39.4176 135.034 39.408 134.979C39.28 134.102 38.5152 132.483 37.536 132.317C37.3724 132.294 37.206 132.306 37.0474 132.352C36.8889 132.398 36.7418 132.477 36.6156 132.584C36.4895 132.69 36.3872 132.822 36.3153 132.971C36.2434 133.119 36.2036 133.281 36.1984 133.446C36.1536 134.147 36.672 134.835 37.1584 135.27C37.6448 135.706 38.9536 136.112 39.3184 136.23C39.0592 136.733 38.8128 137.235 38.5952 137.741C38.5024 137.962 38.3968 138.182 38.3232 138.4C38.2496 138.618 38.1664 138.832 38.0864 139.04C37.9424 139.485 37.8048 139.898 37.68 140.32C37.616 140.531 37.5616 140.73 37.5008 140.938C37.5488 140.579 37.616 140.013 37.616 139.962C37.616 139.072 37.1104 137.357 36.1664 137.046C36.0084 136.999 35.8423 136.986 35.6787 137.007C35.5152 137.028 35.358 137.084 35.2173 137.17C35.0767 137.256 34.9557 137.37 34.8623 137.506C34.7689 137.642 34.7051 137.796 34.6752 137.958C34.6567 138.044 34.646 138.13 34.6432 138.218C34.2156 138.871 33.9612 139.622 33.904 140.4C33.904 140.454 33.9552 141.13 33.9904 141.472C33.8976 141.203 33.808 140.934 33.7184 140.653C33.584 140.25 33.4592 139.818 33.3344 139.398L33.1616 138.736C33.0976 138.512 33.0624 138.288 33.0144 138.064C32.9472 137.744 32.8928 137.382 32.8416 137.037C33.2608 136.928 34.4896 136.582 34.992 136.186C35.4944 135.789 36.0544 135.104 36.0384 134.403C36.04 134.239 36.0071 134.077 35.942 133.926C35.8769 133.775 35.7809 133.64 35.6604 133.529C35.5398 133.418 35.3972 133.333 35.2418 133.28C35.0865 133.227 34.9218 133.208 34.7584 133.222C33.7728 133.344 32.944 134.931 32.7776 135.805C32.7776 135.834 32.7584 136.019 32.7424 136.243C32.7008 135.904 32.6592 135.565 32.6272 135.219C32.5408 134.24 32.4832 133.242 32.4224 132.24C32.4224 132.032 32.3936 131.821 32.3808 131.6C32.7328 131.51 34.0672 131.149 34.592 130.73C35.1168 130.31 35.6576 129.648 35.6416 128.947C35.6427 128.783 35.6095 128.621 35.5442 128.471C35.4789 128.32 35.383 128.185 35.2625 128.074C35.142 127.963 34.9996 127.878 34.8445 127.825C34.6894 127.772 34.5249 127.752 34.3616 127.766C33.376 127.891 32.5472 129.478 32.3808 130.349C32.3808 130.381 32.3584 130.605 32.3392 130.858C32.2976 130.314 32.2496 129.77 32.1856 129.235C32.0771 128.315 31.9082 127.403 31.68 126.506C31.8048 126.474 33.376 126.08 33.9584 125.616C34.4768 125.203 35.024 124.534 35.008 123.834C35.0091 123.67 34.9759 123.507 34.9106 123.357C34.8453 123.207 34.7494 123.072 34.6289 122.96C34.5084 122.849 34.366 122.764 34.2109 122.711C34.0558 122.659 33.8913 122.639 33.728 122.653C32.7424 122.778 31.9136 124.365 31.7472 125.235C31.7472 125.299 31.6768 126.109 31.664 126.4C31.6655 126.389 31.6655 126.379 31.664 126.368C31.4222 125.487 31.1009 124.63 30.704 123.808C30.3538 123.075 29.9617 122.362 29.5296 121.674C29.1328 121.034 28.7328 120.467 28.3744 119.971C28.1792 119.702 27.9968 119.462 27.8208 119.242H27.84C27.84 119.242 27.5616 118.074 27.52 118.003C27.2 117.174 26.112 115.763 25.12 115.805C24.9554 115.818 24.7954 115.865 24.6504 115.944C24.5053 116.023 24.3784 116.131 24.278 116.262C24.1775 116.393 24.1057 116.543 24.0671 116.704C24.0286 116.864 24.0243 117.031 24.0544 117.194C24.16 117.885 24.816 118.448 25.3984 118.765C25.9808 119.082 27.3952 119.21 27.7408 119.235C27.92 119.472 28.1056 119.725 28.304 120.01C28.6496 120.512 29.0368 121.082 29.4176 121.728C29.5168 121.901 29.6192 122.093 29.7216 122.275C29.4848 122.003 29.1584 121.635 29.12 121.603C28.4608 121.011 26.8352 120.256 25.9808 120.758C25.8399 120.845 25.7187 120.959 25.6251 121.095C25.5314 121.231 25.4674 121.386 25.4373 121.548C25.4071 121.71 25.4114 121.877 25.4499 122.038C25.4884 122.198 25.5603 122.349 25.6608 122.48C26.0736 123.046 26.9152 123.245 27.5808 123.258C28.2464 123.27 29.6 122.714 29.8912 122.592C30.112 122.998 30.3264 123.421 30.5312 123.872C30.9058 124.697 31.2056 125.554 31.4272 126.432L31.376 126.454C31.1872 126.179 30.7808 125.606 30.736 125.565C30.144 124.902 28.6144 123.965 27.7056 124.378C27.557 124.449 27.4252 124.551 27.3186 124.677C27.212 124.803 27.1331 124.95 27.0869 125.109C27.0408 125.267 27.0284 125.433 27.0506 125.597C27.0729 125.76 27.1292 125.917 27.216 126.058C27.5616 126.666 28.3776 126.957 29.0336 127.04C29.792 127.136 31.3952 126.634 31.456 126.614C31.6592 127.492 31.8046 128.383 31.8912 129.28C31.9552 129.942 31.9936 130.611 32.0256 131.286C31.9008 131.088 31.3664 130.326 31.3216 130.288C30.7296 129.626 29.2 128.688 28.2912 129.101C28.1426 129.173 28.0108 129.275 27.9042 129.401C27.7976 129.527 27.7187 129.673 27.6725 129.832C27.6264 129.99 27.614 130.157 27.6362 130.32C27.6585 130.484 27.7148 130.64 27.8016 130.781C28.1472 131.389 28.9632 131.68 29.6192 131.763C30.3584 131.859 31.9008 131.382 32.0288 131.341C32.0288 131.661 32.0608 131.952 32.0704 132.259C32.112 133.261 32.1472 134.266 32.2112 135.254C32.2336 135.6 32.2688 135.936 32.304 136.275C32.1056 135.984 31.7344 135.462 31.696 135.421C31.104 134.758 29.5744 133.821 28.6656 134.237C28.5168 134.308 28.3846 134.409 28.2778 134.535C28.1709 134.661 28.0918 134.807 28.0456 134.966C27.9993 135.124 27.9871 135.29 28.0096 135.454C28.032 135.617 28.0887 135.774 28.176 135.914C28.5216 136.506 29.3376 136.797 29.9936 136.88Z" fill="#263238"/>
<path d="M95.8912 41.8496C95.0379 41.4016 94.24 40.5909 93.4976 39.4176C92.7263 38.1698 92.3359 36.724 92.3744 35.2576C92.3744 33.7131 92.7861 32.5536 93.6096 31.7792C94.4331 31.0048 95.6427 30.4181 97.2384 30.0192L103.072 28.608C105.568 27.968 106.815 26.7712 106.813 25.0176C106.813 24.0704 106.352 23.2469 105.43 22.5472C104.509 21.8475 102.925 21.4987 100.678 21.5008C98.731 21.4879 96.7916 21.7519 94.9184 22.2848C93.3942 22.6924 91.9339 23.3095 90.5792 24.1184C89.7243 23.4645 88.99 22.6664 88.4096 21.76C87.7898 20.7617 87.4771 19.6033 87.5104 18.4288C87.4948 17.2043 87.8928 16.0103 88.64 15.04C89.4682 14.0052 90.5327 13.1844 91.744 12.6464C93.2439 11.9697 94.8301 11.5034 96.4576 11.2608C98.4497 10.9495 100.464 10.7997 102.48 10.8128C108.362 10.8043 112.815 12.1067 115.84 14.72C118.865 17.3333 120.373 20.7627 120.365 25.008C120.365 32.9888 114.729 38.1013 103.456 40.3456L95.8912 41.8496ZM93.4208 51.6512C93.4208 49.6075 94.0608 47.9243 95.3408 46.6016C96.6208 45.2789 98.3797 44.6176 100.618 44.6176C102.86 44.6176 104.618 45.2789 105.891 46.6016C107.165 47.9243 107.805 49.6075 107.811 51.6512C107.811 53.6992 107.171 55.3824 105.891 56.7008C104.611 58.0192 102.853 58.6805 100.618 58.6848C98.3712 58.6848 96.6123 58.0235 95.3408 56.7008C94.0693 55.3781 93.4293 53.6949 93.4208 51.6512Z" fill="#263238"/>
<path d="M100.605 58.8448C98.3264 58.8448 96.512 58.16 95.2128 56.8128C93.9136 55.4656 93.2608 53.7312 93.2608 51.6512C93.2608 49.5712 93.9168 47.8368 95.2128 46.4896C96.5088 45.1424 98.3264 44.4576 100.605 44.4576C102.883 44.4576 104.698 45.1424 105.994 46.4896C107.29 47.8368 107.946 49.5744 107.946 51.6512C107.946 53.728 107.29 55.4688 105.994 56.8128C104.698 58.1568 102.883 58.8448 100.605 58.8448ZM100.605 44.7648C98.416 44.7648 96.6784 45.4048 95.4432 46.6848C94.208 47.9648 93.5808 49.632 93.5808 51.6224C93.5808 53.6128 94.2208 55.2768 95.4432 56.5632C96.6656 57.8496 98.416 58.4832 100.605 58.4832C102.794 58.4832 104.528 57.8432 105.763 56.5632C106.998 55.2832 107.626 53.616 107.626 51.6224C107.626 49.6288 107.002 48 105.763 46.72C104.525 45.44 102.794 44.7776 100.605 44.7776V44.7648ZM95.8912 41.9968C95.8645 41.9966 95.8381 41.99 95.8144 41.9776C94.9472 41.52 94.1216 40.6976 93.36 39.4912C92.5782 38.2187 92.1804 36.7475 92.2144 35.2544C92.2144 33.6704 92.6464 32.4608 93.4944 31.6576C94.3424 30.8544 95.5808 30.2656 97.1968 29.8624L103.04 28.4512C105.472 27.8112 106.656 26.6944 106.656 25.0176C106.656 24.128 106.214 23.3376 105.338 22.6752C104.461 22.0128 102.88 21.6608 100.682 21.6608C98.7494 21.6491 96.8253 21.9109 94.9664 22.4384C93.4576 22.8437 92.0116 23.4542 90.6688 24.2528C90.6412 24.2708 90.609 24.2805 90.576 24.2805C90.543 24.2805 90.5108 24.2708 90.4832 24.2528C89.6159 23.5866 88.87 22.7758 88.2784 21.856C87.6434 20.8293 87.324 19.6387 87.36 18.432C87.3397 17.1683 87.7467 15.9347 88.5152 14.9312C89.3561 13.8739 90.438 13.0334 91.6704 12.48C93.1837 11.7976 94.7838 11.327 96.4256 11.0816C98.4263 10.7694 100.449 10.6185 102.474 10.6304C108.371 10.6304 112.899 11.9648 115.936 14.5984C118.973 17.232 120.515 20.7392 120.515 25.008C120.515 33.0368 114.784 38.2496 103.478 40.5024L95.92 41.9968H95.8912ZM100.691 21.328C102.96 21.328 104.592 21.6896 105.539 22.4064C106.486 23.1232 106.986 24.0064 106.986 25.0048C106.986 26.8224 105.69 28.0832 103.126 28.7488L97.28 30.1856C95.7184 30.576 94.5184 31.1456 93.7216 31.904C92.9248 32.6624 92.5376 33.7728 92.5376 35.2672C92.5029 36.7005 92.8841 38.1132 93.6352 39.3344C94.3488 40.4544 95.1168 41.2544 95.92 41.6832L103.421 40.1984C114.554 37.9808 120.198 32.8736 120.198 25.0176C120.198 20.8576 118.694 17.424 115.718 14.848C112.742 12.272 108.285 10.96 102.467 10.96C100.459 10.947 98.4539 11.0969 96.4704 11.408C94.8577 11.6482 93.2856 12.1091 91.7984 12.7776C90.6111 13.3065 89.5676 14.1119 88.7552 15.1264C88.0342 16.0755 87.6553 17.2404 87.68 18.432C87.6477 19.5748 87.9514 20.7019 88.5536 21.6736C89.1053 22.5293 89.7964 23.2864 90.5984 23.9136C91.9411 23.1293 93.3819 22.5267 94.8832 22.1216C96.7684 21.5892 98.7195 21.3263 100.678 21.3408L100.691 21.328Z" fill="#263238"/>
<path d="M69.4688 92.7744L70.1024 144.019H95.168L93.1072 93.408L69.4688 92.7744Z" fill="#263238"/>
<path d="M95.168 144.179H70.1024C70.06 144.179 70.0193 144.162 69.9893 144.132C69.9593 144.102 69.9424 144.062 69.9424 144.019L69.3024 92.7744C69.3038 92.7314 69.3209 92.6905 69.3504 92.6592C69.3659 92.6439 69.3845 92.632 69.4049 92.6243C69.4253 92.6166 69.447 92.6133 69.4688 92.6144L93.1072 93.2544C93.1478 93.2559 93.1863 93.2725 93.2153 93.3009C93.2443 93.3293 93.2616 93.3675 93.264 93.408L95.328 144C95.3293 144.021 95.326 144.043 95.3183 144.063C95.3105 144.082 95.2986 144.1 95.2832 144.115C95.27 144.134 95.2527 144.149 95.2328 144.16C95.2129 144.171 95.1907 144.178 95.168 144.179ZM70.2592 143.859H95.0016L92.9536 93.5648L69.6288 92.9248L70.2592 143.859Z" fill="#263238"/>
<path d="M69.4688 74.4672L70.1024 125.712H95.168L93.1072 75.1008L69.4688 74.4672Z" fill="white"/>
<path d="M95.168 125.872H70.1024C70.06 125.872 70.0193 125.855 69.9893 125.825C69.9593 125.795 69.9424 125.754 69.9424 125.712L69.3024 74.4704C69.3025 74.4272 69.3198 74.3858 69.3504 74.3552C69.3653 74.3389 69.3836 74.326 69.4041 74.3177C69.4246 74.3094 69.4467 74.3058 69.4688 74.3072L93.1072 74.9472C93.1477 74.9472 93.1866 74.9628 93.2159 74.9909C93.2451 75.0189 93.2623 75.0572 93.264 75.0976L95.3248 125.709C95.3262 125.731 95.3229 125.752 95.3152 125.773C95.3074 125.793 95.2955 125.812 95.28 125.827C95.2498 125.856 95.2097 125.872 95.168 125.872ZM70.2592 125.552H95.0016L92.9536 75.2576L69.6288 74.6176L70.2592 125.552Z" fill="#263238"/>
<path d="M78.1888 79.9936L80.8 84.3456L76.2336 117.19L83.12 124.08L87.616 115.453L82.4672 84.5632L85.0784 81.0112L82.1792 76.368L78.1888 79.9936Z" fill="#263238"/>
<path d="M83.12 124.24C83.099 124.24 83.0782 124.236 83.0589 124.228C83.0396 124.22 83.0223 124.207 83.008 124.192L76.1184 117.306C76.1011 117.288 76.088 117.266 76.0803 117.242C76.0725 117.218 76.0702 117.193 76.0736 117.168L80.64 84.3776L78.0608 80.0768C78.0408 80.0453 78.0327 80.0077 78.038 79.9707C78.0433 79.9338 78.0616 79.8999 78.0896 79.8752L82.0768 76.2496C82.0949 76.2347 82.1159 76.2235 82.1384 76.2169C82.161 76.2103 82.1847 76.2084 82.208 76.2112C82.2309 76.2145 82.2529 76.2227 82.2723 76.2355C82.2916 76.2482 82.3079 76.2651 82.32 76.2848L85.2192 80.9248C85.2371 80.9513 85.2466 80.9825 85.2466 81.0144C85.2466 81.0464 85.2371 81.0776 85.2192 81.104L82.6592 84.6016L87.7952 115.424C87.8011 115.459 87.7955 115.495 87.7792 115.526L83.2992 124.166C83.2874 124.189 83.2705 124.208 83.2499 124.222C83.2294 124.237 83.2057 124.246 83.1808 124.25L83.12 124.24ZM76.4 117.136L83.0752 123.811L87.4464 115.424L82.3072 84.5888C82.3006 84.5461 82.311 84.5025 82.336 84.4672L84.896 81.0016L82.1536 76.6176L78.4 80.0256L80.96 84.2624C80.9783 84.2944 80.9862 84.3314 80.9824 84.368L76.4 117.136Z" fill="#263238"/>
<path d="M80.8 84.3456L80.7008 85.0656L83.6128 83.0048L85.0784 81.0112L83.68 78.7712L79.312 81.8624L80.8 84.3456Z" fill="#D94445"/>
<path d="M80.7008 85.2256C80.6712 85.2249 80.6424 85.2161 80.6176 85.2C80.591 85.1841 80.5696 85.1609 80.5559 85.133C80.5423 85.1052 80.537 85.074 80.5408 85.0432L80.6336 84.3776L79.1744 81.9456C79.1524 81.9111 79.1448 81.8694 79.1532 81.8293C79.1615 81.7892 79.1852 81.754 79.2192 81.7312L83.5872 78.6432C83.6234 78.6177 83.6682 78.6073 83.712 78.6144C83.7332 78.6191 83.7532 78.6281 83.7708 78.6407C83.7884 78.6534 83.8032 78.6695 83.8144 78.688L85.2128 80.928C85.2307 80.9545 85.2402 80.9857 85.2402 81.0176C85.2402 81.0496 85.2307 81.0808 85.2128 81.1072L83.7504 83.1008C83.7393 83.1142 83.7263 83.1261 83.712 83.136L80.8 85.1968C80.7707 85.2165 80.7361 85.2266 80.7008 85.2256ZM79.5232 81.92L80.9376 84.2752C80.9559 84.3072 80.9638 84.3441 80.96 84.3808L80.9088 84.7328L83.5008 82.9024L84.8864 81.0144L83.6352 79.0144L79.5232 81.92Z" fill="#263238"/>
<path d="M79.2896 95.216L83.7216 92.08L83.0976 88.336L79.9328 90.5728L79.2896 95.216Z" fill="#D94445"/>
<path d="M79.2896 95.3601C79.2603 95.3607 79.2314 95.3529 79.2064 95.3377C79.1801 95.3215 79.1589 95.2981 79.1453 95.2704C79.1317 95.2426 79.1262 95.2116 79.1296 95.1809L79.7696 90.5377C79.7727 90.5159 79.7803 90.495 79.7919 90.4762C79.8034 90.4575 79.8187 90.4414 79.8368 90.4289L82.9984 88.1889C83.0204 88.1732 83.0462 88.1634 83.0731 88.1606C83.1 88.1578 83.1272 88.162 83.152 88.1729C83.1768 88.1836 83.1986 88.2003 83.2154 88.2215C83.2321 88.2428 83.2433 88.2678 83.248 88.2945L83.872 92.0385C83.8767 92.0679 83.8732 92.0982 83.8619 92.1258C83.8506 92.1535 83.832 92.1775 83.808 92.1953L79.3824 95.3601C79.3521 95.3689 79.3199 95.3689 79.2896 95.3601ZM80.0832 90.6529L79.4976 94.8577L83.5456 91.9777L82.9824 88.5857L80.0832 90.6529Z" fill="#263238"/>
<path d="M83.248 123.834L86.7008 117.206L80.5792 121.539L83.0304 123.99L83.248 123.834Z" fill="#D94445"/>
<path d="M83.0304 124.16C82.9871 124.16 82.9457 124.143 82.9152 124.112L80.4672 121.661C80.45 121.645 80.4368 121.625 80.4285 121.602C80.4202 121.58 80.417 121.556 80.4192 121.533C80.4212 121.51 80.4283 121.488 80.4399 121.468C80.4515 121.448 80.4674 121.431 80.4864 121.418L86.608 117.088C86.6362 117.066 86.6712 117.054 86.7072 117.054C86.7432 117.054 86.7781 117.066 86.8064 117.088C86.8331 117.111 86.8511 117.143 86.8575 117.178C86.8639 117.213 86.8583 117.249 86.8416 117.28L83.392 123.907C83.3794 123.93 83.3619 123.95 83.3408 123.965L83.1232 124.118C83.0982 124.143 83.0653 124.158 83.0304 124.16ZM80.8256 121.565L83.0464 123.786L83.1232 123.731L86.2528 117.728L80.8256 121.565Z" fill="#263238"/>
<path d="M84.4608 96.5216L78.5216 100.723L77.8784 105.363L85.0848 100.266L84.4608 96.5216Z" fill="#D94445"/>
<path d="M77.8784 105.523C77.8491 105.524 77.8202 105.516 77.7952 105.501C77.768 105.485 77.7463 105.461 77.7326 105.432C77.7189 105.404 77.714 105.372 77.7184 105.341L78.3584 100.701C78.3646 100.658 78.3876 100.618 78.4224 100.592L84.3616 96.3936C84.3836 96.3774 84.4094 96.367 84.4366 96.3636C84.4637 96.3602 84.4913 96.3638 84.5167 96.3741C84.542 96.3843 84.5643 96.4009 84.5814 96.4223C84.5985 96.4436 84.6099 96.469 84.6144 96.496L85.2352 100.24C85.2415 100.27 85.2388 100.3 85.2274 100.328C85.216 100.356 85.1964 100.38 85.1712 100.397L77.9648 105.494C77.9392 105.512 77.9093 105.522 77.8784 105.523ZM78.672 100.8L78.08 105.021L84.9056 100.192L84.3392 96.8L78.672 100.8Z" fill="#263238"/>
<path d="M86.1216 106.483L76.8064 113.072L76.2336 117.19L76.5088 117.466L86.7456 110.227L86.1216 106.483Z" fill="#D94445"/>
<path d="M76.5088 117.626C76.4876 117.626 76.4665 117.623 76.4467 117.615C76.4269 117.607 76.4089 117.596 76.3936 117.581L76.1184 117.306C76.1011 117.288 76.088 117.266 76.0803 117.242C76.0725 117.218 76.0702 117.193 76.0736 117.168L76.6464 113.05C76.6541 113.006 76.6781 112.967 76.7136 112.941L86.0288 106.352C86.051 106.337 86.0768 106.327 86.1037 106.324C86.1306 106.321 86.1578 106.325 86.1828 106.336C86.2077 106.346 86.2296 106.363 86.2463 106.384C86.263 106.406 86.2741 106.431 86.2784 106.458L86.9024 110.202C86.9064 110.231 86.9026 110.261 86.8914 110.289C86.8801 110.316 86.8619 110.34 86.8384 110.358L76.5984 117.597C76.5719 117.615 76.5408 117.625 76.5088 117.626ZM76.4032 117.136L76.5248 117.258L86.5696 110.154L86.0064 106.762L76.9536 113.162L76.4032 117.136Z" fill="#263238"/>
<path d="M81.888 77.8912L75.5072 84.7808L73.3312 75.8624L74.0128 73.1296L81.888 77.8912Z" fill="white"/>
<path d="M75.52 84.9408H75.4784C75.4507 84.9337 75.4253 84.9193 75.4051 84.899C75.3848 84.8787 75.3703 84.8534 75.3632 84.8256L73.1904 75.9072C73.184 75.882 73.184 75.8557 73.1904 75.8304L73.872 73.0976C73.8784 73.0738 73.8901 73.0516 73.9061 73.0328C73.9222 73.014 73.9422 72.9989 73.9648 72.9888C73.9872 72.9778 74.0119 72.9721 74.0368 72.9721C74.0618 72.9721 74.0864 72.9778 74.1088 72.9888L81.9712 77.76C81.9918 77.7723 82.0094 77.789 82.0227 77.8089C82.036 77.8288 82.0447 77.8515 82.048 77.8752C82.0511 77.8988 82.0489 77.9228 82.0417 77.9454C82.0345 77.9681 82.0225 77.9889 82.0064 78.0064L75.6256 84.896C75.5968 84.923 75.5594 84.9389 75.52 84.9408ZM73.5104 75.8624L75.6064 84.4545L81.6512 77.9264L74.1312 73.3792L73.5104 75.8624Z" fill="#263238"/>
<path d="M81.888 77.8912L86.7456 84.272L89.0656 75.5008L88.2688 73.4688L81.888 77.8912Z" fill="white"/>
<path d="M86.7456 84.432C86.7211 84.4317 86.697 84.4261 86.6749 84.4156C86.6528 84.4051 86.6333 84.39 86.6176 84.3712L81.76 77.9712C81.7466 77.9543 81.737 77.9346 81.7321 77.9136C81.7271 77.8926 81.7268 77.8707 81.7312 77.8496C81.7344 77.8283 81.742 77.8078 81.7535 77.7896C81.7651 77.7715 81.7804 77.7559 81.7984 77.744L88.176 73.3216C88.1964 73.3079 88.2196 73.2988 88.2439 73.2949C88.2682 73.291 88.2931 73.2925 88.3168 73.2992C88.3394 73.3075 88.3602 73.3203 88.3778 73.3368C88.3954 73.3533 88.4095 73.3731 88.4192 73.3952L89.216 75.424C89.2255 75.4564 89.2255 75.4908 89.216 75.5232L86.896 84.2976C86.8888 84.3269 86.8732 84.3535 86.851 84.374C86.8288 84.3945 86.801 84.408 86.7712 84.4128L86.7456 84.432ZM82.1184 77.9296L86.6752 83.9168L88.8992 75.52L88.1952 73.728L82.1184 77.9296Z" fill="#263238"/>
<path d="M36.352 73.0464C36.352 73.0464 34.176 68.6176 33.088 67.168C32 65.7184 30.9088 64.8448 29.6768 64.6272C28.4448 64.4096 27.5712 64.4832 26.6272 64.1184C25.6832 63.7536 23.7952 63.248 23.2896 62.5952C22.784 61.9424 21.8368 62.3776 22.272 63.4656C22.7072 64.5536 24.2336 65.28 24.2336 65.28L25.4656 65.8592C25.4656 65.8592 21.4752 66.4416 21.184 66.6592C20.8928 66.8768 17.408 67.168 17.408 67.168C17.408 67.168 18.9344 69.8528 21.1104 71.088C23.2864 72.3232 30.112 71.3056 30.112 71.3056L32.144 75.5872L36.352 73.0464Z" fill="white"/>
<path d="M32.144 75.7472H32.096C32.0749 75.7403 32.0554 75.729 32.0389 75.7141C32.0224 75.6993 32.0091 75.6811 32 75.6608L30.016 71.5008C29.056 71.6352 23.1008 72.4192 21.0336 71.248C18.8416 69.984 17.3344 67.3568 17.28 67.2448C17.2674 67.2212 17.2608 67.1948 17.2608 67.168C17.2608 67.1412 17.2674 67.1149 17.28 67.0912C17.2925 67.0676 17.3108 67.0475 17.3332 67.033C17.3556 67.0184 17.3813 67.0098 17.408 67.008C19.0688 66.8704 20.9056 66.6528 21.104 66.5312C21.3568 66.3392 23.664 65.968 24.944 65.7792L24.1888 65.424C24.1248 65.3952 22.5888 64.6592 22.1504 63.5264C21.872 62.8288 22.112 62.3872 22.4032 62.2208C22.5797 62.1316 22.7828 62.1103 22.974 62.161C23.1652 62.2118 23.331 62.331 23.44 62.496C23.8048 62.9664 25.04 63.392 25.9552 63.7024C26.2368 63.7984 26.4992 63.888 26.7104 63.968C27.2686 64.1641 27.8511 64.2826 28.4416 64.32C28.832 64.3584 29.2384 64.4 29.7024 64.4832C30.9312 64.6976 32.0448 65.5264 33.2224 67.0848C34.3072 68.5312 36.4224 72.8064 36.5024 72.9888C36.5202 73.0248 36.5238 73.0661 36.5126 73.1047C36.5013 73.1432 36.476 73.1761 36.4416 73.1968L32.2336 75.7376C32.205 75.748 32.1742 75.7513 32.144 75.7472ZM30.112 71.1456C30.1421 71.1452 30.1716 71.1534 30.1972 71.1693C30.2227 71.1852 30.2431 71.208 30.256 71.2352L32.2112 75.3568L36.16 72.9856C35.7888 72.24 33.92 68.5472 32.96 67.264C31.84 65.7728 30.7904 64.9856 29.648 64.784C29.1936 64.704 28.7936 64.6656 28.4096 64.6272C27.7795 64.5939 27.157 64.4732 26.56 64.2688C26.352 64.1888 26.096 64.0992 25.8176 64.0064C24.8192 63.664 23.5776 63.2384 23.152 62.6944C23.0898 62.5912 22.9922 62.5141 22.8774 62.4776C22.7626 62.4411 22.6384 62.4476 22.528 62.496C22.3456 62.6016 22.208 62.8992 22.4128 63.4048C22.8192 64.4256 24.2752 65.1296 24.2912 65.136L25.5232 65.7152C25.5544 65.7303 25.5801 65.7548 25.5968 65.7852C25.6134 65.8156 25.6201 65.8504 25.616 65.8848C25.6103 65.9189 25.5938 65.9503 25.5691 65.9744C25.5444 65.9986 25.5126 66.0143 25.4784 66.0192C23.5936 66.2944 21.4784 66.6592 21.2672 66.7872C20.992 66.9952 18.7072 67.216 17.6704 67.3056C18.0832 67.9456 19.424 69.952 21.1904 70.9472C23.296 72.1408 30.0192 71.1552 30.0864 71.1456H30.112Z" fill="#263238"/>
<path d="M16.0352 66.4512C16.0352 66.4512 14.9152 64.0672 15.008 63.552C15.1008 63.0368 16.0832 63.3664 16.4096 64.0672C16.736 64.768 17.8592 66.4512 17.8592 66.4512H16.0352Z" fill="white"/>
<path d="M17.8592 66.6112H16.0352C16.0049 66.6106 15.9755 66.6016 15.95 66.5852C15.9246 66.5689 15.9042 66.5457 15.8912 66.5184C15.6992 66.112 14.752 64.0608 14.8512 63.5232C14.8661 63.4236 14.9145 63.3319 14.9883 63.2633C15.0621 63.1947 15.1571 63.1532 15.2576 63.1456C15.5328 63.1507 15.8009 63.2336 16.0308 63.3849C16.2607 63.5361 16.4431 63.7494 16.5568 64C16.8768 64.6848 17.9808 66.3488 17.9936 66.3648C18.0088 66.3892 18.0174 66.4173 18.0183 66.446C18.0192 66.4748 18.0125 66.5033 17.9989 66.5287C17.9852 66.554 17.9651 66.5753 17.9406 66.5903C17.916 66.6054 17.888 66.6137 17.8592 66.6144V66.6112ZM16.1376 66.2912H17.5616C17.0934 65.5947 16.6609 64.8748 16.2656 64.1344C16.1809 63.9464 16.047 63.7847 15.878 63.6664C15.709 63.5481 15.5113 63.4777 15.3056 63.4624C15.2032 63.4624 15.1808 63.5264 15.1712 63.5808C15.1072 63.9072 15.7152 65.376 16.1376 66.2912Z" fill="#263238"/>
<path d="M14.048 65.3152C14.048 65.3152 15.7888 69.0176 16.9504 70.032C18.112 71.0464 20.4352 71.1232 20.4352 71.1232C20.4352 71.1232 17.6768 68.2176 17.0976 67.1296C16.5184 66.0416 14.4 63.4272 14.048 65.3152Z" fill="white"/>
<path d="M20.4352 71.2832C20.3392 71.2832 18.0416 71.1968 16.8512 70.1536C15.6608 69.1104 13.9712 65.536 13.9104 65.3824C13.8994 65.3514 13.8994 65.3175 13.9104 65.2864C14 64.8096 14.208 64.544 14.5248 64.496C15.4272 64.3584 16.8256 66.2464 17.2576 67.056C17.8208 68.112 20.544 70.9824 20.5696 71.0112C20.5903 71.0343 20.604 71.0628 20.609 71.0933C20.6141 71.1239 20.6104 71.1553 20.5983 71.1838C20.5863 71.2123 20.5663 71.2368 20.5408 71.2544C20.5153 71.272 20.4854 71.282 20.4544 71.2832H20.4352ZM14.2144 65.296C14.4224 65.7312 16.0032 68.992 17.056 69.9136C17.8752 70.6304 19.3312 70.8736 20.0352 70.9312C19.312 70.1568 17.4336 68.1024 16.9536 67.2064C16.4736 66.3104 15.1904 64.7136 14.5536 64.8128C14.4 64.8384 14.2816 64.9984 14.2144 65.296Z" fill="#263238"/>
<path d="M15.4496 65.6417C15.4496 65.6417 17.1904 69.3441 18.352 70.3617C19.5136 71.3793 21.8368 71.4496 21.8368 71.4496C21.8368 71.4496 19.0784 68.5473 18.4992 67.4561C17.92 66.3649 15.8112 63.7569 15.4496 65.6417Z" fill="white"/>
<path d="M21.8368 71.6096C21.7408 71.6096 19.4464 71.5232 18.2528 70.48C17.0592 69.4368 15.3728 65.8624 15.312 65.712C15.301 65.6799 15.301 65.645 15.312 65.6128C15.4037 65.1371 15.6085 64.8747 15.9264 64.8256C16.832 64.6848 18.2272 66.5728 18.6592 67.3856C19.2224 68.4416 21.9456 71.312 21.9712 71.344C21.9932 71.3664 22.008 71.3947 22.0137 71.4255C22.0194 71.4563 22.0157 71.4881 22.0032 71.5168C21.9887 71.5478 21.9648 71.5734 21.9349 71.59C21.9051 71.6067 21.8708 71.6135 21.8368 71.6096ZM15.616 65.6224C15.824 66.0576 17.4048 69.3184 18.4576 70.24C19.28 70.9568 20.7328 71.2 21.44 71.2576C20.7136 70.4832 18.8352 68.432 18.3584 67.5328C17.8816 66.6336 16.592 65.0464 15.9552 65.1424C15.7952 65.1648 15.68 65.328 15.616 65.6224Z" fill="#263238"/>
<path d="M31.2 69.4176C31.2 69.4176 30.8352 68.8352 29.6 68.0384C28.3648 67.2416 21.8336 69.2704 21.8336 69.2704C21.8336 69.2704 18.8576 65.5712 18.4224 65.2064C17.9872 64.8416 17.1872 64.6272 17.0432 65.3536C16.8992 66.08 18.8576 69.1936 19.3664 69.7088C19.8752 70.224 21.8336 71.4496 21.8336 71.4496C23.024 71.859 24.2774 72.0551 25.536 72.0288C27.078 71.9178 28.6078 71.6758 30.1088 71.3056" fill="white"/>
<path d="M25.2288 72.1952C24.0544 72.1837 22.8895 71.9827 21.7792 71.6L21.76 71.584C21.68 71.5328 19.7792 70.336 19.2672 69.8208C18.816 69.3696 16.7296 66.1632 16.8992 65.3216C16.9147 65.1952 16.9647 65.0755 17.0438 64.9756C17.1228 64.8757 17.2277 64.7995 17.3472 64.7552C17.5568 64.7105 17.774 64.7162 17.9809 64.7719C18.1879 64.8275 18.3787 64.9315 18.5376 65.0752C18.9472 65.4176 21.4464 68.5088 21.904 69.0784C22.9376 68.7584 28.4896 67.1104 29.6992 67.8944C30.9088 68.6784 31.328 69.2992 31.344 69.3216C31.3556 69.3394 31.3635 69.3592 31.3672 69.3801C31.3709 69.401 31.3704 69.4223 31.3656 69.443C31.3608 69.4636 31.3519 69.4831 31.3394 69.5002C31.3268 69.5173 31.311 69.5316 31.2928 69.5424C31.2753 69.554 31.2557 69.5618 31.2351 69.5655C31.2145 69.5692 31.1933 69.5686 31.1729 69.5638C31.1526 69.559 31.1334 69.5501 31.1166 69.5376C31.0998 69.5251 31.0857 69.5094 31.0752 69.4912C30.6425 68.955 30.1141 68.5036 29.5168 68.16C28.5568 67.536 23.68 68.8512 21.8848 69.4112C21.8542 69.4211 21.8213 69.4214 21.7905 69.4123C21.7597 69.4032 21.7323 69.3849 21.712 69.36C20.688 68.08 18.6592 65.5968 18.3232 65.3184C18.2069 65.209 18.0672 65.1274 17.9148 65.0797C17.7624 65.0321 17.6011 65.0196 17.4432 65.0432C17.378 65.07 17.3213 65.1138 17.2791 65.1702C17.2368 65.2265 17.2106 65.2932 17.2032 65.3632C17.0816 65.9648 18.928 69.0176 19.4816 69.5712C19.9488 70.0384 21.7216 71.1712 21.9072 71.2832C23.0747 71.6764 24.301 71.8669 25.5328 71.8464C27.0654 71.7415 28.5864 71.5082 30.08 71.1488C30.1224 71.1387 30.1672 71.1457 30.2044 71.1685C30.2416 71.1914 30.2682 71.228 30.2784 71.2704C30.2886 71.3129 30.2815 71.3576 30.2587 71.3948C30.2359 71.432 30.1992 71.4587 30.1568 71.4688C28.6452 71.8415 27.1048 72.0856 25.552 72.1984C25.4368 72.1952 25.3312 72.1952 25.2288 72.1952Z" fill="#263238"/>
<path d="M38.8864 76.8448L36.272 72.2208L29.9392 76.0416L31.5456 79.9648L38.8864 76.8448Z" fill="white"/>
<path d="M31.5456 80.1248C31.5255 80.1278 31.505 80.1278 31.4848 80.1248C31.4459 80.1083 31.4149 80.0773 31.3984 80.0384L29.7984 76.1152C29.7846 76.0795 29.7837 76.0401 29.796 76.0038C29.8083 75.9675 29.8329 75.9368 29.8656 75.9168L36.1984 72.096C36.2181 72.0875 36.2393 72.0831 36.2608 72.0831C36.2823 72.0831 36.3035 72.0875 36.3232 72.096C36.3645 72.1069 36.4 72.1333 36.4224 72.1696L39.04 76.768C39.0486 76.7883 39.0531 76.81 39.0531 76.832C39.0531 76.854 39.0486 76.8758 39.04 76.896C39.0329 76.9176 39.0212 76.9373 39.0057 76.9539C38.9903 76.9704 38.9714 76.9835 38.9504 76.992L31.6096 80.112C31.5891 80.1196 31.5675 80.1239 31.5456 80.1248ZM30.1376 76.1088L31.632 79.7536L38.672 76.768L36.2272 72.4416L30.1376 76.1088Z" fill="#263238"/>
<path d="M73.3312 75.8624L70.864 144.022H52.9664L56.5856 95.4528C56.5856 95.4528 46.832 106.112 45.7248 106.714C44.6176 107.315 43.2128 105.408 43.2128 105.408L30.0384 79.5616L37.8816 75.2384L46.5216 89.3184L47.8272 88.4128L48.832 88.9152C48.832 88.9152 57.792 73.1296 58.4864 72.7264C59.1808 72.3232 62.5088 72.5248 62.5088 72.5248L71.1488 73.2288L74.0768 72.5888L73.3312 75.8624Z" fill="#D94445"/>
<path d="M70.864 144.179H52.9664C52.9442 144.179 52.9223 144.175 52.9019 144.166C52.8816 144.157 52.8632 144.144 52.848 144.128C52.8315 144.111 52.8188 144.091 52.8105 144.069C52.8023 144.047 52.7987 144.024 52.8 144L56.384 95.8912C54.6816 97.7472 46.8128 106.291 45.7952 106.845C44.5824 107.507 43.136 105.565 43.0752 105.491L29.8944 79.6352C29.876 79.5977 29.8727 79.5545 29.8852 79.5146C29.8977 79.4747 29.9251 79.4412 29.9616 79.4208L37.8048 75.0976C37.8408 75.0781 37.8829 75.0729 37.9226 75.083C37.9623 75.0931 37.9968 75.1177 38.0192 75.152L46.576 89.088L47.7472 88.2784C47.7715 88.2644 47.7991 88.257 47.8272 88.257C47.8553 88.257 47.8829 88.2644 47.9072 88.2784L48.7776 88.7136C49.9904 86.576 57.712 72.9984 58.416 72.5984C59.12 72.1984 62.1824 72.3552 62.528 72.3744L71.168 73.0784L74.0704 72.4384C74.0964 72.4322 74.1236 72.4328 74.1494 72.4401C74.1752 72.4474 74.1986 72.4611 74.2176 72.48C74.2365 72.4996 74.2503 72.5237 74.2575 72.55C74.2648 72.5762 74.2654 72.6039 74.2592 72.6304L73.504 75.8848L71.04 144.022C71.0392 144.044 71.034 144.066 71.0246 144.086C71.0152 144.106 71.0019 144.124 70.9855 144.138C70.969 144.153 70.9498 144.164 70.9289 144.171C70.908 144.178 70.8859 144.181 70.864 144.179ZM53.1392 143.859H70.72L73.1808 75.856C73.1796 75.8454 73.1796 75.8347 73.1808 75.824L73.8816 72.8L71.2032 73.3824H71.1552L62.5152 72.6784C61.6096 72.624 59.1296 72.5472 58.5856 72.8576C58.048 73.2224 52.5536 82.704 48.9856 88.9888C48.9653 89.0246 48.9321 89.0512 48.8928 89.0631C48.8535 89.075 48.8111 89.0713 48.7744 89.0528L47.8528 88.592L46.624 89.4432C46.6061 89.456 46.5858 89.4649 46.5643 89.4693C46.5428 89.4737 46.5206 89.4735 46.4992 89.4688C46.478 89.4642 46.458 89.4552 46.4404 89.4426C46.4228 89.4299 46.408 89.4138 46.3968 89.3952L37.824 75.4496L30.2528 79.6256L43.3536 105.331C43.3536 105.331 44.6784 107.101 45.648 106.57C46.5056 106.102 53.1008 99.0208 56.4672 95.3408C56.4898 95.3162 56.5195 95.2992 56.5522 95.2923C56.5849 95.2855 56.619 95.289 56.6496 95.3024C56.68 95.3161 56.7055 95.3388 56.7227 95.3674C56.7399 95.396 56.7479 95.4292 56.7456 95.4624L53.1392 143.859Z" fill="#263238"/>
<path d="M56.6848 93.9392L57.3088 87.7312L52.6528 99.5712L56.5856 95.4496L56.6848 93.9392Z" fill="#263238"/>
<path d="M52.6528 99.7312C52.6221 99.7312 52.5922 99.7223 52.5664 99.7056C52.5352 99.6859 52.5118 99.656 52.5002 99.621C52.4885 99.5861 52.4893 99.5481 52.5024 99.5136L57.1616 87.6736C57.1759 87.6379 57.2023 87.6083 57.2363 87.5901C57.2702 87.572 57.3095 87.5664 57.3472 87.5744C57.385 87.5835 57.4182 87.6061 57.4406 87.6379C57.463 87.6697 57.473 87.7086 57.4688 87.7472L56.8288 93.9552L56.7296 95.4592C56.7267 95.4965 56.7109 95.5316 56.6848 95.5584L52.768 99.68C52.7535 99.6962 52.7357 99.7092 52.7159 99.718C52.696 99.7268 52.6745 99.7313 52.6528 99.7312ZM57.0336 88.8512L53.1008 98.88L56.4288 95.3888L56.5248 93.9392L57.0336 88.8512Z" fill="#263238"/>
<path d="M56.1824 89.6768C56.1441 89.6764 56.1073 89.6623 56.0785 89.6371C56.0497 89.6118 56.031 89.5771 56.0256 89.5392C55.9232 88.8384 55.248 79.3728 55.2192 78.9792C55.2177 78.9582 55.2204 78.9371 55.2271 78.9171C55.2338 78.8972 55.2443 78.8787 55.2581 78.8628C55.2861 78.8307 55.3256 78.811 55.368 78.808C55.4104 78.805 55.4523 78.819 55.4844 78.847C55.5165 78.8749 55.5362 78.9144 55.5392 78.9568C55.5392 79.056 56.2432 88.8128 56.3424 89.5168C56.3479 89.5588 56.3364 89.6013 56.3106 89.6348C56.2848 89.6684 56.2468 89.6904 56.2048 89.696L56.1824 89.6768Z" fill="#263238"/>
<path d="M55.3792 93.296C55.3408 93.2965 55.3036 93.2832 55.2742 93.2586C55.2449 93.2339 55.2253 93.1995 55.2192 93.1617L54.1152 86.1217C54.1115 86.101 54.1121 86.0799 54.1167 86.0595C54.1214 86.039 54.1301 86.0198 54.1423 86.0028C54.1545 85.9858 54.17 85.9714 54.1879 85.9605C54.2058 85.9496 54.2257 85.9423 54.2464 85.9392C54.2888 85.9328 54.332 85.9432 54.3668 85.9684C54.4015 85.9935 54.4249 86.0314 54.432 86.0737L55.536 93.1137C55.5396 93.1343 55.5391 93.1554 55.5345 93.1758C55.5298 93.1963 55.5211 93.2155 55.5089 93.2325C55.4967 93.2495 55.4811 93.2639 55.4633 93.2748C55.4454 93.2857 55.4255 93.2929 55.4048 93.296H55.3792Z" fill="#263238"/>
<path d="M43.8144 95.7088C43.7913 95.7148 43.7671 95.7148 43.744 95.7088C43.7066 95.6902 43.6779 95.6577 43.6642 95.6182C43.6504 95.5787 43.6526 95.5355 43.6704 95.4976L46.2848 90.0576C46.2928 90.0372 46.305 90.0186 46.3205 90.003C46.336 89.9875 46.3546 89.9753 46.375 89.9673C46.3955 89.9592 46.4174 89.9554 46.4393 89.9562C46.4613 89.957 46.4829 89.9623 46.5027 89.9717C46.5225 89.9812 46.5402 89.9947 46.5546 90.0113C46.569 90.0279 46.5798 90.0473 46.5864 90.0682C46.593 90.0892 46.5951 90.1113 46.5928 90.1331C46.5905 90.155 46.5836 90.1761 46.5728 90.1952L43.9584 95.6352C43.9436 95.6597 43.9223 95.6795 43.8969 95.6925C43.8714 95.7055 43.8429 95.7112 43.8144 95.7088Z" fill="#263238"/>
<path d="M46.6304 94C46.6061 93.9997 46.5821 93.9943 46.56 93.984C46.5224 93.9648 46.4936 93.9317 46.4799 93.8917C46.4662 93.8517 46.4685 93.808 46.4864 93.7696L48.5984 89.5456C48.6076 89.5267 48.6205 89.5098 48.6363 89.4959C48.6522 89.482 48.6706 89.4715 48.6907 89.4649C48.7107 89.4583 48.7318 89.4559 48.7528 89.4576C48.7738 89.4594 48.7942 89.4654 48.8128 89.4752C48.8317 89.4845 48.8487 89.4973 48.8626 89.5131C48.8766 89.5289 48.8873 89.5472 48.8941 89.5672C48.901 89.5871 48.9038 89.6082 48.9025 89.6292C48.9012 89.6502 48.8957 89.6707 48.8864 89.6896L46.7744 93.9104C46.7612 93.9374 46.7407 93.9601 46.7153 93.9759C46.6898 93.9917 46.6604 94.0001 46.6304 94Z" fill="#263238"/>
<path d="M70.0608 107.373C70.0277 107.374 69.9952 107.364 69.9681 107.345C69.9409 107.326 69.9207 107.299 69.9104 107.267C68.3648 102.944 67.2 96.2464 66.4928 91.3856C66.4873 91.3441 66.4983 91.3021 66.5234 91.2686C66.5485 91.2351 66.5858 91.2128 66.6272 91.2064C66.6691 91.2009 66.7115 91.2118 66.7455 91.2368C66.7795 91.2619 66.8025 91.2992 66.8096 91.3408C67.5136 96.1856 68.6752 102.861 70.2112 107.162C70.2182 107.181 70.2212 107.202 70.22 107.223C70.2188 107.244 70.2134 107.265 70.2041 107.283C70.1949 107.302 70.182 107.319 70.1661 107.333C70.1503 107.346 70.1319 107.357 70.112 107.363C70.0956 107.37 70.0783 107.373 70.0608 107.373Z" fill="#263238"/>
<path d="M66.336 89.248C66.2973 89.2478 66.2601 89.2338 66.2308 89.2086C66.2015 89.1834 66.1821 89.1486 66.176 89.1104C65.984 87.6512 65.8784 86.7264 65.8784 86.72C65.8753 86.6901 65.8806 86.66 65.8936 86.6329C65.9066 86.6058 65.9268 86.5828 65.952 86.5664L69.6256 84.176L65.1072 83.44C65.0791 83.4359 65.0526 83.4242 65.0306 83.4061C65.0086 83.3881 64.992 83.3644 64.9824 83.3376C64.9728 83.3108 64.9704 83.2819 64.9755 83.2538C64.9805 83.2257 64.9928 83.1995 65.0112 83.1776C65.0112 83.1776 66.0224 81.9616 67.0112 80.4768C68 78.992 71.2 74.0768 71.232 74.0448C71.2555 74.009 71.2922 73.9839 71.3342 73.9749C71.3761 73.966 71.4198 73.9738 71.456 73.9968C71.4911 74.0203 71.5155 74.0567 71.5238 74.098C71.5322 74.1394 71.5239 74.1824 71.5008 74.2176C71.4688 74.2688 68.272 79.1648 67.2768 80.656C66.5248 81.7824 65.7664 82.752 65.4304 83.168L70.08 83.9296C70.1119 83.9348 70.1415 83.9494 70.1649 83.9717C70.1884 83.994 70.2045 84.0228 70.2112 84.0544C70.2171 84.086 70.2136 84.1187 70.2011 84.1483C70.1886 84.1779 70.1676 84.2031 70.1408 84.2208L66.2016 86.7808C66.2336 87.0528 66.3296 87.8848 66.4864 89.0688C66.4918 89.1108 66.4804 89.1533 66.4546 89.1869C66.4288 89.2205 66.3908 89.2425 66.3488 89.248H66.336Z" fill="#263238"/>
<path d="M125.994 73.0464C125.994 73.0464 128.17 68.6176 129.261 67.168C130.352 65.7184 131.437 64.8448 132.672 64.6272C133.907 64.4096 134.774 64.4832 135.718 64.1184C136.662 63.7536 138.55 63.248 139.059 62.5952C139.568 61.9424 140.509 62.3776 140.074 63.4656C139.638 64.5536 138.115 65.28 138.115 65.28L136.88 65.8592C136.88 65.8592 140.874 66.4416 141.162 66.6592C141.45 66.8768 144.938 67.168 144.938 67.168C144.938 67.168 143.411 69.8528 141.235 71.088C139.059 72.3232 132.237 71.3056 132.237 71.3056L130.205 75.5872L125.994 73.0464Z" fill="white"/>
<path d="M130.202 75.7473C130.174 75.7463 130.146 75.7386 130.122 75.7248L125.91 73.184C125.877 73.1628 125.852 73.1299 125.84 73.0916C125.829 73.0533 125.833 73.0122 125.85 72.9761C125.939 72.7937 128.048 68.5185 129.133 67.0721C130.301 65.5137 131.418 64.6849 132.653 64.4705C133.117 64.3873 133.523 64.3457 133.914 64.3073C134.512 64.2766 135.103 64.1624 135.67 63.968C135.885 63.888 136.144 63.7985 136.426 63.7025C137.334 63.3825 138.576 62.9665 138.941 62.4961C139.049 62.3305 139.215 62.2108 139.407 62.16C139.598 62.1092 139.801 62.1309 139.978 62.2209C140.269 62.3873 140.512 62.8289 140.234 63.5265C139.779 64.6593 138.256 65.3952 138.192 65.424L137.437 65.7792C138.691 65.968 141.011 66.3393 141.277 66.5313C141.472 66.6529 143.309 66.8704 144.97 67.008C144.996 67.0097 145.022 67.0183 145.045 67.0329C145.067 67.0475 145.086 67.0677 145.098 67.0914C145.111 67.1152 145.117 67.1418 145.116 67.1687C145.116 67.1955 145.108 67.2218 145.094 67.2448C145.034 67.3568 143.523 69.9841 141.334 71.2257C139.267 72.3969 133.296 71.6128 132.349 71.4784L130.368 75.6384C130.358 75.6588 130.344 75.677 130.327 75.6919C130.31 75.7067 130.29 75.7179 130.269 75.7248L130.202 75.7473ZM126.202 72.9857L130.134 75.3569L132.09 71.2353C132.105 71.2043 132.129 71.179 132.16 71.1629C132.19 71.1468 132.225 71.1408 132.259 71.1457C132.326 71.1457 139.053 72.1409 141.155 70.9473C142.912 69.9521 144.256 67.9617 144.675 67.3057C143.648 67.2161 141.354 66.9857 141.075 66.7873C140.87 66.6561 138.752 66.2944 136.867 66.0192C136.833 66.0147 136.802 65.999 136.777 65.9747C136.753 65.9505 136.737 65.9189 136.733 65.8848C136.727 65.8507 136.733 65.8157 136.749 65.7851C136.766 65.7546 136.791 65.73 136.822 65.7152L138.054 65.1361C138.07 65.1361 139.53 64.4224 139.936 63.4048C140.138 62.8992 140 62.6017 139.821 62.4961C139.708 62.4439 139.581 62.4353 139.463 62.4719C139.344 62.5086 139.244 62.5879 139.181 62.6944C138.758 63.2384 137.514 63.6545 136.515 64.0065C136.24 64.0993 135.984 64.1888 135.773 64.2688C135.179 64.4724 134.56 64.593 133.933 64.6273C133.549 64.6657 133.149 64.704 132.694 64.784C131.555 64.9856 130.502 65.7728 129.386 67.264C128.426 68.5472 126.573 72.2401 126.202 72.9857Z" fill="#263238"/>
<path d="M146.31 66.4512C146.31 66.4512 147.43 64.0672 147.338 63.552C147.245 63.0368 146.262 63.3664 145.936 64.0672C145.61 64.768 144.486 66.4512 144.486 66.4512H146.31Z" fill="white"/>
<path d="M146.31 66.6112H144.486C144.457 66.6103 144.429 66.6019 144.405 66.5867C144.38 66.5716 144.36 66.5502 144.346 66.5248C144.33 66.5005 144.322 66.4722 144.322 66.4432C144.322 66.4143 144.33 66.3859 144.346 66.3616C144.346 66.3616 145.462 64.6816 145.782 63.9968C145.894 63.749 146.074 63.5377 146.3 63.3871C146.526 63.2366 146.791 63.1529 147.062 63.1456C147.163 63.1532 147.258 63.1947 147.332 63.2633C147.406 63.3319 147.454 63.4236 147.469 63.5232C147.568 64.0608 146.621 66.112 146.429 66.5184C146.418 66.5423 146.402 66.5631 146.381 66.5793C146.36 66.5954 146.336 66.6064 146.31 66.6112ZM144.784 66.2912H146.208C146.634 65.376 147.238 63.9072 147.168 63.5808C147.168 63.5264 147.136 63.4752 147.034 63.4624C146.828 63.478 146.63 63.5486 146.461 63.6668C146.293 63.7851 146.159 63.9466 146.074 64.1344C145.68 64.8747 145.25 65.5945 144.784 66.2912Z" fill="#263238"/>
<path d="M148.298 65.3152C148.298 65.3152 146.557 69.0176 145.395 70.032C144.234 71.0464 141.91 71.1232 141.91 71.1232C141.91 71.1232 144.669 68.2176 145.251 67.1296C145.834 66.0416 147.936 63.4272 148.298 65.3152Z" fill="white"/>
<path d="M141.91 71.2832C141.88 71.2827 141.85 71.2734 141.824 71.2564C141.799 71.2394 141.779 71.2154 141.766 71.1872C141.754 71.1583 141.75 71.1262 141.755 71.095C141.76 71.0637 141.774 71.0346 141.795 71.0112C141.824 70.9824 144.547 68.112 145.11 67.056C145.542 66.2464 146.941 64.3552 147.843 64.496C148.163 64.544 148.365 64.816 148.454 65.2864C148.464 65.3177 148.464 65.3512 148.454 65.3824C148.381 65.536 146.685 69.1264 145.51 70.1536C144.336 71.1808 142.022 71.28 141.926 71.2832H141.91ZM147.738 64.8096C147.098 64.8096 145.846 66.3552 145.392 67.2064C144.938 68.0576 143.034 70.1568 142.31 70.9312C143.014 70.8608 144.47 70.6304 145.29 69.9136C146.342 68.992 147.923 65.7312 148.131 65.296C148.067 64.9984 147.952 64.8384 147.795 64.8128L147.738 64.8096Z" fill="#263238"/>
<path d="M146.896 65.6417C146.896 65.6417 145.155 69.3441 143.994 70.3617C142.832 71.3793 140.509 71.4496 140.509 71.4496C140.509 71.4496 143.267 68.5473 143.85 67.4561C144.432 66.3649 146.534 63.7569 146.896 65.6417Z" fill="white"/>
<path d="M140.509 71.6096C140.478 71.6091 140.448 71.5998 140.423 71.5828C140.397 71.5658 140.377 71.5418 140.365 71.5136C140.351 71.4854 140.346 71.4536 140.351 71.4226C140.357 71.3916 140.371 71.363 140.394 71.3408C140.422 71.3088 143.142 68.4384 143.706 67.3824C144.138 66.5728 145.53 64.6848 146.438 64.8224C146.758 64.8704 146.963 65.1424 147.053 65.6096C147.064 65.6418 147.064 65.6767 147.053 65.7088C146.982 65.8592 145.283 69.4528 144.112 70.4768C142.941 71.5008 140.624 71.6032 140.528 71.6064L140.509 71.6096ZM146.336 65.136C145.68 65.136 144.442 66.6816 143.99 67.5328C143.51 68.432 141.632 70.4832 140.909 71.2576C141.613 71.1872 143.069 70.9568 143.888 70.24C144.941 69.3184 146.522 66.0576 146.73 65.6224C146.666 65.328 146.55 65.1648 146.39 65.1424L146.336 65.136Z" fill="#263238"/>
<path d="M131.146 69.4176C131.146 69.4176 131.51 68.8352 132.746 68.0384C133.981 67.2416 140.512 69.2704 140.512 69.2704C140.512 69.2704 143.488 65.5712 143.923 65.2064C144.358 64.8416 145.158 64.6272 145.302 65.3536C145.446 66.08 143.488 69.1936 142.979 69.7088C142.47 70.224 140.512 71.4496 140.512 71.4496C139.322 71.859 138.068 72.0551 136.81 72.0288C135.269 71.918 133.74 71.676 132.24 71.3056" fill="white"/>
<path d="M137.12 72.1952C137.014 72.1952 136.909 72.1952 136.8 72.1952C135.247 72.0827 133.707 71.8386 132.195 71.4656C132.153 71.4554 132.116 71.4288 132.093 71.3916C132.07 71.3544 132.063 71.3096 132.074 71.2672C132.084 71.2248 132.11 71.1881 132.148 71.1653C132.185 71.1425 132.23 71.1354 132.272 71.1456C133.762 71.5126 135.28 71.7534 136.81 71.8656C138.042 71.8882 139.268 71.6977 140.435 71.3024C140.614 71.1872 142.394 70.0576 142.861 69.5904C143.414 69.0368 145.261 65.984 145.139 65.3824C145.132 65.3122 145.106 65.2451 145.064 65.1887C145.022 65.1322 144.965 65.0885 144.899 65.0624C144.741 65.039 144.58 65.0516 144.428 65.0992C144.275 65.1469 144.136 65.2284 144.019 65.3376C143.699 65.616 141.658 68.1024 140.63 69.3792C140.61 69.4041 140.583 69.4223 140.552 69.4314C140.521 69.4406 140.488 69.4402 140.458 69.4304C138.662 68.8736 133.789 67.5584 132.826 68.1792C131.648 68.9408 131.283 69.504 131.28 69.5072C131.257 69.5433 131.222 69.5689 131.18 69.5785C131.139 69.5881 131.095 69.5809 131.059 69.5584C131.023 69.5359 130.997 69.5 130.988 69.4586C130.978 69.4172 130.985 69.3737 131.008 69.3376C131.008 69.3152 131.405 68.72 132.653 67.9104C133.901 67.1008 139.414 68.7744 140.451 69.0944C140.909 68.5248 143.405 65.4336 143.814 65.0912C143.974 64.9483 144.165 64.8449 144.371 64.7893C144.578 64.7338 144.795 64.7275 145.005 64.7712C145.125 64.8148 145.23 64.8909 145.309 64.9909C145.388 65.0909 145.438 65.2109 145.453 65.3376C145.622 66.1792 143.533 69.3856 143.088 69.8368C142.573 70.352 140.672 71.5488 140.592 71.6L140.563 71.616C139.454 71.9932 138.291 72.1888 137.12 72.1952Z" fill="#263238"/>
<path d="M123.459 76.8448L126.074 72.2208L132.41 76.0416L130.8 79.9648L123.459 76.8448Z" fill="white"/>
<path d="M130.8 80.1248C130.779 80.1278 130.757 80.1278 130.736 80.1248L123.395 77.0048C123.374 76.9967 123.356 76.9837 123.341 76.9671C123.326 76.9504 123.315 76.9304 123.309 76.9088C123.299 76.8888 123.294 76.867 123.294 76.8448C123.294 76.8227 123.299 76.8008 123.309 76.7808L125.923 72.1536C125.946 72.1173 125.981 72.0909 126.022 72.08C126.042 72.0715 126.063 72.0671 126.085 72.0671C126.106 72.0671 126.127 72.0715 126.147 72.08L132.48 75.904C132.512 75.9244 132.536 75.9554 132.548 75.9917C132.559 76.0279 132.558 76.0671 132.544 76.1024L130.944 80.0256C130.927 80.0645 130.896 80.0955 130.858 80.112C130.839 80.119 130.82 80.1233 130.8 80.1248ZM123.686 76.768L130.726 79.7536L132.221 76.1088L126.141 72.4416L123.686 76.768Z" fill="#263238"/>
<path d="M89.0144 75.8624L91.4816 144.022H109.382L105.76 95.4496C105.76 95.4496 115.514 106.109 116.621 106.71C117.728 107.312 119.136 105.405 119.136 105.405L132.307 79.5616L124.48 75.2384L115.84 89.3184L114.531 88.4128L113.526 88.9152C113.526 88.9152 104.566 73.1296 103.872 72.7264C103.178 72.3232 99.8496 72.5248 99.8496 72.5248L91.2096 73.2288L88.0096 72.5888L89.0144 75.8624Z" fill="#D94445"/>
<path d="M109.382 144.179H91.4816C91.44 144.178 91.4002 144.162 91.3705 144.133C91.3407 144.103 91.3232 144.064 91.3216 144.022L88.8544 75.888L87.8176 72.64C87.8094 72.6131 87.8084 72.5845 87.8146 72.557C87.8207 72.5295 87.8339 72.5041 87.8528 72.4832C87.8713 72.4623 87.8948 72.4466 87.9212 72.4376C87.9476 72.4286 87.9759 72.4267 88.0032 72.432L91.2032 73.072L99.8272 72.368C100.176 72.3488 103.219 72.176 103.942 72.592C104.666 73.008 112.368 86.5696 113.581 88.7072L114.451 88.272C114.476 88.258 114.504 88.2506 114.533 88.2506C114.561 88.2506 114.59 88.258 114.614 88.272L115.782 89.0816L124.342 75.1456C124.364 75.1115 124.398 75.0869 124.437 75.0768C124.476 75.0668 124.518 75.0719 124.554 75.0912L132.397 79.4144C132.433 79.4347 132.461 79.4683 132.473 79.5082C132.486 79.5481 132.482 79.5913 132.464 79.6288L119.29 105.472C119.216 105.574 117.773 107.51 116.557 106.845C115.542 106.291 107.674 97.7472 105.968 95.8912L109.542 144C109.544 144.022 109.541 144.045 109.533 144.066C109.525 144.086 109.513 144.106 109.498 144.122C109.484 144.139 109.466 144.153 109.446 144.163C109.426 144.173 109.405 144.179 109.382 144.179ZM91.6352 143.859H109.21L105.6 95.4624C105.598 95.4287 105.606 95.395 105.624 95.3663C105.641 95.3375 105.668 95.3152 105.699 95.3024C105.729 95.2887 105.763 95.285 105.795 95.292C105.827 95.2989 105.857 95.316 105.878 95.3408C109.248 99.0208 115.84 106.102 116.698 106.56C117.658 107.091 118.992 105.318 119.008 105.299L132.096 79.616L124.522 75.44L115.952 89.3888C115.941 89.4076 115.926 89.4239 115.909 89.4366C115.891 89.4493 115.871 89.4581 115.85 89.4624C115.828 89.4671 115.806 89.4673 115.784 89.4628C115.763 89.4584 115.743 89.4496 115.725 89.4368L114.496 88.5856L113.574 89.0464C113.538 89.0647 113.496 89.0683 113.457 89.0564C113.419 89.0444 113.386 89.0179 113.366 88.9824C109.802 82.6976 104.307 73.216 103.766 72.8512C103.226 72.5312 100.746 72.6176 99.8336 72.672L91.1936 73.376H91.1488L88.2048 72.7936L89.1648 75.808C89.1666 75.8218 89.1666 75.8358 89.1648 75.8496L91.6352 143.859Z" fill="#263238"/>
<path d="M105.76 95.4496L105.638 90.544L109.52 99.28L105.76 95.4496Z" fill="#263238"/>
<path d="M109.52 99.44C109.499 99.4403 109.478 99.4361 109.459 99.4279C109.44 99.4196 109.422 99.4074 109.408 99.392L105.648 95.552C105.619 95.5227 105.602 95.4841 105.6 95.4432L105.478 90.56C105.478 90.5232 105.49 90.4873 105.513 90.4583C105.536 90.4292 105.567 90.4087 105.603 90.4C105.639 90.3909 105.677 90.3948 105.711 90.4113C105.744 90.4277 105.771 90.4555 105.786 90.4896L109.667 99.2256C109.682 99.2597 109.685 99.2981 109.674 99.3338C109.664 99.3696 109.641 99.4004 109.61 99.4208C109.582 99.4364 109.551 99.4431 109.52 99.44ZM105.92 95.3824L109.014 98.5376L105.814 91.344L105.92 95.3824Z" fill="#263238"/>
<path d="M105.661 94.0992C105.62 94.0994 105.582 94.0843 105.552 94.057C105.522 94.0297 105.504 93.9922 105.501 93.952L104.595 80.6784C104.594 80.6574 104.596 80.6363 104.603 80.6163C104.61 80.5964 104.62 80.5779 104.634 80.562C104.648 80.5461 104.665 80.5331 104.684 80.5237C104.702 80.5143 104.723 80.5087 104.744 80.5072C104.765 80.5058 104.786 80.5084 104.806 80.5151C104.826 80.5218 104.845 80.5324 104.86 80.5462C104.876 80.56 104.889 80.5768 104.899 80.5957C104.908 80.6145 104.914 80.635 104.915 80.656L105.821 93.9296C105.822 93.9506 105.819 93.9717 105.812 93.9916C105.805 94.0115 105.795 94.0299 105.781 94.0457C105.767 94.0614 105.75 94.0743 105.731 94.0834C105.712 94.0926 105.691 94.098 105.67 94.0992H105.661Z" fill="#263238"/>
<path d="M106.163 89.6768H106.141C106.099 89.6705 106.062 89.6481 106.037 89.6146C106.012 89.5811 106.001 89.5391 106.006 89.4976C106.102 88.8064 106.586 83.2384 106.589 83.184C106.594 83.1419 106.616 83.1034 106.648 83.0761C106.681 83.0489 106.722 83.0348 106.765 83.0368C106.807 83.0409 106.845 83.0613 106.872 83.0936C106.899 83.126 106.912 83.1676 106.909 83.2096C106.89 83.44 106.422 88.8416 106.323 89.5424C106.316 89.58 106.297 89.614 106.268 89.6386C106.238 89.6631 106.201 89.6767 106.163 89.6768Z" fill="#263238"/>
<path d="M106.97 93.296H106.944C106.923 93.2933 106.903 93.2864 106.885 93.2757C106.866 93.2649 106.85 93.2506 106.838 93.2335C106.825 93.2165 106.816 93.1971 106.811 93.1765C106.807 93.1559 106.806 93.1345 106.81 93.1136L107.917 86.0736C107.92 86.0526 107.927 86.0324 107.938 86.0142C107.949 85.996 107.964 85.9802 107.981 85.9675C107.998 85.9549 108.017 85.9458 108.038 85.9406C108.058 85.9355 108.08 85.9345 108.101 85.9376C108.122 85.9408 108.142 85.9481 108.16 85.959C108.178 85.97 108.194 85.9844 108.207 86.0015C108.22 86.0186 108.229 86.038 108.234 86.0586C108.239 86.0792 108.24 86.1006 108.237 86.1216L107.13 93.1616C107.124 93.1998 107.105 93.2346 107.075 93.2594C107.046 93.2842 107.008 93.2972 106.97 93.296Z" fill="#263238"/>
<path d="M116.426 93.1905C116.388 93.1896 116.352 93.1757 116.323 93.1512C116.295 93.1267 116.275 93.0931 116.269 93.0561L115.76 90.1473C115.756 90.1262 115.757 90.1047 115.762 90.084C115.766 90.0632 115.775 90.0435 115.788 90.0262C115.8 90.0088 115.816 89.994 115.834 89.9826C115.852 89.9713 115.872 89.9636 115.893 89.9601C115.914 89.9565 115.935 89.9571 115.956 89.9618C115.977 89.9666 115.997 89.9754 116.014 89.9877C116.031 90 116.046 90.0157 116.057 90.0337C116.069 90.0517 116.076 90.0719 116.08 90.0929L116.592 93.0017C116.599 93.0436 116.589 93.0864 116.564 93.1211C116.54 93.1557 116.502 93.1794 116.461 93.1873L116.426 93.1905Z" fill="#263238"/>
<path d="M113.571 91.7633C113.529 91.7608 113.49 91.7427 113.461 91.7124C113.432 91.6822 113.415 91.642 113.414 91.6001L113.446 89.6129C113.451 89.5717 113.47 89.5334 113.499 89.5047C113.529 89.4761 113.568 89.4588 113.61 89.4561C113.631 89.4565 113.651 89.461 113.671 89.4695C113.69 89.4779 113.707 89.49 113.722 89.5052C113.736 89.5203 113.748 89.5382 113.755 89.5578C113.763 89.5774 113.767 89.5982 113.766 89.6193L113.734 91.6033C113.734 91.6245 113.73 91.6456 113.722 91.6652C113.714 91.6849 113.702 91.7026 113.686 91.7175C113.671 91.7324 113.653 91.7442 113.633 91.752C113.614 91.7599 113.592 91.7637 113.571 91.7633Z" fill="#263238"/>
<path d="M92.288 107.373C92.2702 107.378 92.2514 107.378 92.2336 107.373C92.1939 107.359 92.1612 107.33 92.1427 107.292C92.1241 107.255 92.1211 107.211 92.1344 107.171C92.3776 106.493 92.6208 105.725 92.8576 104.886C92.8633 104.865 92.873 104.846 92.8863 104.829C92.8996 104.811 92.9161 104.797 92.935 104.786C92.9539 104.775 92.9747 104.768 92.9963 104.765C93.0179 104.762 93.0398 104.764 93.0608 104.77C93.0818 104.775 93.1015 104.785 93.1187 104.798C93.136 104.812 93.1504 104.828 93.1613 104.847C93.1721 104.866 93.1792 104.887 93.182 104.908C93.1848 104.93 93.1833 104.952 93.1776 104.973C92.9376 105.818 92.6912 106.595 92.448 107.277C92.4347 107.308 92.4121 107.333 92.3834 107.351C92.3547 107.368 92.3214 107.376 92.288 107.373Z" fill="#263238"/>
<path d="M93.44 103.549H93.3984C93.3579 103.538 93.3231 103.512 93.3016 103.476C93.2801 103.44 93.2735 103.398 93.2832 103.357C94.9856 96.6368 96.0352 87.8144 96.1632 86.7872L92.224 84.2272C92.1971 84.2097 92.1762 84.1843 92.1642 84.1546C92.1522 84.1248 92.1496 84.0921 92.1568 84.0608C92.1624 84.0293 92.1778 84.0003 92.2008 83.9779C92.2237 83.9555 92.2531 83.9409 92.2848 83.936L96.9408 83.1744C96.6208 82.7584 95.8464 81.7888 95.0944 80.6624C94.0992 79.1712 90.9024 74.2624 90.8704 74.224C90.8501 74.1884 90.8442 74.1464 90.854 74.1066C90.8637 74.0668 90.8884 74.0323 90.9228 74.0102C90.9573 73.988 90.999 73.9799 91.0392 73.9875C91.0795 73.9952 91.1152 74.018 91.1392 74.0512C91.1712 74.0992 94.368 78.9952 95.36 80.4832C96.352 81.9712 97.3536 83.1744 97.3632 83.184C97.3805 83.2064 97.3919 83.2328 97.3963 83.2608C97.4008 83.2887 97.3982 83.3173 97.3888 83.344C97.3792 83.3708 97.3626 83.3945 97.3406 83.4125C97.3186 83.4305 97.2921 83.4423 97.264 83.4464L92.7456 84.1824L96.4224 86.5728C96.4473 86.5893 96.4671 86.6124 96.4795 86.6396C96.492 86.6667 96.4966 86.6968 96.4928 86.7264C96.4928 86.8192 95.4112 96.2944 93.6128 103.434C93.6024 103.47 93.5793 103.502 93.5476 103.523C93.5159 103.544 93.4778 103.553 93.44 103.549Z" fill="#263238"/>
<path d="M73.984 66.2912L74.0128 73.1296L81.888 77.8912L88.2688 73.4688L87.68 65.712C87.68 65.712 82.7488 68.912 82.096 69.0464C81.4432 69.1808 73.984 66.2912 73.984 66.2912Z" fill="white"/>
<path d="M81.888 78.0512C81.8587 78.0518 81.8298 78.0441 81.8048 78.0288L73.92 73.28C73.8964 73.2654 73.8768 73.2452 73.8628 73.2212C73.8489 73.1972 73.841 73.1702 73.84 73.1424L73.8112 66.304C73.8117 66.2782 73.8184 66.2529 73.8306 66.2302C73.8429 66.2074 73.8603 66.1879 73.8816 66.1732C73.9028 66.1585 73.9272 66.1491 73.9528 66.1457C73.9784 66.1423 74.0044 66.145 74.0288 66.1536C76.9088 67.2672 81.6 68.9952 82.0576 68.9024C82.5152 68.8096 85.616 66.864 87.5904 65.5904C87.6141 65.5763 87.6412 65.5689 87.6688 65.5689C87.6964 65.5689 87.7235 65.5763 87.7472 65.5904C87.7721 65.6028 87.7933 65.6214 87.809 65.6444C87.8247 65.6673 87.8343 65.6939 87.8368 65.7216L88.416 73.4784C88.4179 73.5065 88.4125 73.5346 88.4001 73.5599C88.3878 73.5852 88.3689 73.6067 88.3456 73.6224L81.968 78.0448C81.9422 78.0534 81.9148 78.0556 81.888 78.0512ZM74.1728 73.04L81.8816 77.7024L88.1024 73.3888L87.5488 65.9904C86.4992 66.6688 82.7488 69.0688 82.1408 69.1904C81.5328 69.312 75.7824 67.1456 74.1408 66.512L74.1728 73.04Z" fill="#263238"/>
<path d="M74.0928 71.8208L81.5712 69.968L74.0128 66.8832L74.0928 71.8208Z" fill="#263238"/>
<path d="M74.0928 71.9776C74.0571 71.9784 74.0222 71.9671 73.9936 71.9456C73.9745 71.9309 73.9592 71.912 73.9486 71.8903C73.9381 71.8687 73.9327 71.8449 73.9328 71.8208L73.8528 66.88C73.8528 66.8536 73.8592 66.8276 73.8714 66.8042C73.8837 66.7808 73.9014 66.7607 73.9232 66.7456C73.9462 66.733 73.9721 66.7264 73.9984 66.7264C74.0247 66.7264 74.0505 66.733 74.0736 66.7456L81.632 69.8304C81.6633 69.8432 81.6898 69.8656 81.7076 69.8943C81.7254 69.9231 81.7337 69.9567 81.7312 69.9904C81.7279 70.0239 81.7144 70.0556 81.6927 70.0813C81.671 70.107 81.642 70.1256 81.6096 70.1344L74.1312 71.984L74.0928 71.9776ZM74.1792 67.1232L74.2496 71.6032L81.056 69.9169L74.1792 67.1232Z" fill="#263238"/>
<path d="M87.68 57.7345C87.68 57.7345 87.6064 54.6177 88.4768 52.8769C88.7555 52.3132 88.9005 51.6929 88.9005 51.0641C88.9005 50.4352 88.7555 49.8149 88.4768 49.2513L89.28 48.9601C88.8427 48.5939 88.3832 48.2551 87.904 47.9457C87.6864 47.8721 88.048 45.9169 87.3952 44.8993C86.7424 43.8817 86.0896 43.6673 86.0896 43.6673L85.728 44.9729C85.728 44.9729 83.7696 42.6529 82.6816 42.2177C81.5936 41.7825 78.48 39.6801 78.4 40.7681C78.32 41.8561 78.7648 42.2913 78.7648 42.2913C78.7648 42.2913 76.5888 41.0561 74.9248 41.4913C73.2608 41.9265 71.6608 42.9441 72.0224 43.3057C72.384 43.6673 73.9808 45.1905 73.9808 45.1905C73.9808 45.1905 70.2848 45.3345 69.8496 45.7697C69.5575 46.1079 69.3395 46.5036 69.2096 46.9313L71.312 48.0193C71.312 48.0193 69.4272 47.8721 68.7008 49.0337C67.9744 50.1953 67.8304 50.6337 68.3392 50.8449C68.842 51.1011 69.3263 51.3919 69.7888 51.7153C69.7888 51.7153 69.28 52.5857 69.8624 54.0353C70.4448 55.4849 71.8176 58.6785 71.8176 58.6785C71.8176 58.6785 72.3264 53.4561 72.688 52.4417C73.0496 51.4273 77.5488 49.0337 78.1984 48.8161C78.848 48.5985 83.4208 49.8305 83.712 49.8305C84.0032 49.8305 85.8848 57.1553 86.32 57.4433C86.7552 57.7313 87.68 57.7345 87.68 57.7345Z" fill="#263238"/>
<path d="M71.808 58.8384C71.7769 58.8376 71.7468 58.8279 71.7212 58.8102C71.6957 58.7926 71.6758 58.768 71.664 58.7392C71.664 58.7072 70.2784 55.5392 69.7024 54.096C69.2256 52.9056 69.4528 52.0832 69.5776 51.7728C69.1593 51.4818 68.7208 51.2209 68.2656 50.992C68.1802 50.9631 68.1025 50.9153 68.0382 50.8521C67.974 50.7889 67.9248 50.7121 67.8944 50.6272C67.7856 50.2784 68.032 49.7888 68.5568 48.9472C69.0496 48.1568 70.0192 47.9296 70.6688 47.872L69.12 47.072C69.0865 47.056 69.0599 47.0284 69.0452 46.9942C69.0305 46.9601 69.0286 46.9218 69.04 46.8864C69.1799 46.4321 69.4156 46.0131 69.7312 45.6576C70.128 45.2608 72.5472 45.1008 73.5968 45.0464C73.1264 44.5952 72.176 43.6864 71.9072 43.4176C71.862 43.3752 71.83 43.3206 71.8152 43.2604C71.8005 43.2002 71.8035 43.1369 71.824 43.0784C71.9808 42.4992 73.568 41.68 74.88 41.3376C76.1344 41.0176 77.632 41.5744 78.3776 41.9168C78.2532 41.5441 78.2064 41.1499 78.24 40.7584C78.2405 40.6788 78.2621 40.6008 78.3026 40.5322C78.3431 40.4636 78.401 40.407 78.4704 40.368C78.9536 40.1024 80.0448 40.6496 81.5328 41.456C82.0064 41.712 82.4544 41.9552 82.7392 42.0704C83.6576 42.4352 85.12 44.0384 85.6512 44.6304L85.9328 43.6128C85.939 43.5918 85.9492 43.5723 85.9629 43.5553C85.9766 43.5382 85.9936 43.5241 86.0128 43.5136C86.0323 43.5043 86.0536 43.4994 86.0752 43.4994C86.0968 43.4994 86.1181 43.5043 86.1376 43.5136C86.1664 43.5136 86.8512 43.76 87.5264 44.7936C87.9648 45.4752 87.9712 46.528 87.9744 47.2256C87.9699 47.4159 87.9784 47.6062 88 47.7952C88.4797 48.1076 88.9403 48.4485 89.3792 48.816C89.4012 48.8345 89.4181 48.8583 89.4282 48.8852C89.4383 48.9122 89.4413 48.9412 89.4368 48.9696C89.4312 48.9973 89.4185 49.023 89.4 49.0444C89.3815 49.0657 89.3578 49.0818 89.3312 49.0912L88.6912 49.3216C88.9468 49.8908 89.0724 50.5097 89.0592 51.1335C89.0459 51.7573 88.894 52.3703 88.6144 52.928C87.7728 54.6144 87.8336 57.68 87.8336 57.712C87.8335 57.7553 87.8162 57.7967 87.7856 57.8272C87.7713 57.8426 87.754 57.8548 87.7347 57.8631C87.7154 57.8713 87.6946 57.8755 87.6736 57.8752C87.632 57.8752 86.6752 57.8752 86.208 57.5552C85.9712 57.3984 85.6256 56.3552 84.7072 53.2992C84.2944 51.9328 83.7888 50.2464 83.616 49.9616C83.4688 49.9424 83.1456 49.8656 82.4544 49.7056C81.216 49.4144 78.64 48.8064 78.224 48.944C77.5456 49.1712 73.1424 51.5488 72.8128 52.464C72.464 53.4496 71.9584 58.608 71.952 58.6592C71.9489 58.6948 71.9339 58.7283 71.9096 58.7544C71.8852 58.7805 71.8528 58.7977 71.8176 58.8032L71.808 58.8384ZM71.1104 48.1728C70.6368 48.1728 69.3664 48.256 68.8256 49.1328C68.4 49.8176 68.128 50.32 68.1856 50.5472C68.1856 50.5888 68.2336 50.6528 68.3808 50.7168C68.8928 50.9759 69.3858 51.2711 69.856 51.6C69.8898 51.6229 69.9137 51.6578 69.9226 51.6977C69.9315 51.7376 69.9249 51.7793 69.904 51.8144C69.904 51.8144 69.4464 52.6432 69.9872 53.9936C70.4128 55.056 71.2672 57.0784 71.6992 58.064C71.8464 56.6432 72.224 53.2256 72.5152 52.4032C72.9216 51.2672 77.5968 48.8576 78.128 48.6816C78.5888 48.5248 80.4736 48.9472 82.528 49.4304C83.0816 49.5616 83.6064 49.6832 83.6896 49.6864C83.9008 49.6864 83.9808 49.808 85.0144 53.2448C85.5104 54.8864 86.1856 57.1296 86.3936 57.3312C86.7437 57.4974 87.126 57.5848 87.5136 57.5872C87.5136 56.9056 87.5584 54.3648 88.3296 52.8224C88.594 52.2808 88.7314 51.686 88.7314 51.0832C88.7314 50.4805 88.594 49.8857 88.3296 49.344C88.3185 49.3238 88.312 49.3013 88.3104 49.2783C88.3089 49.2552 88.3123 49.2321 88.3205 49.2105C88.3287 49.189 88.3415 49.1694 88.358 49.1532C88.3745 49.137 88.3942 49.1246 88.416 49.1168L88.9472 48.9248C88.5972 48.6288 88.2273 48.3572 87.84 48.112C87.6512 48.0512 87.6512 47.8208 87.6448 47.2608C87.6448 46.6016 87.6448 45.6064 87.248 45.0016C86.9837 44.558 86.6173 44.1838 86.1792 43.9104L85.8592 45.0304C85.8518 45.0586 85.8369 45.0842 85.816 45.1045C85.7951 45.1248 85.7691 45.139 85.7408 45.1456C85.7122 45.1514 85.6825 45.1494 85.655 45.1398C85.6274 45.1303 85.6029 45.1135 85.584 45.0912C85.5648 45.0688 83.6384 42.7968 82.6016 42.3808C82.1771 42.1887 81.7627 41.9751 81.36 41.7408C80.4 41.2256 78.9728 40.4608 78.6048 40.6496C78.5888 40.6496 78.5472 40.6816 78.5408 40.7808C78.4768 41.7696 78.8608 42.176 78.8608 42.1824C78.8862 42.2111 78.9002 42.2481 78.9002 42.2864C78.9002 42.3248 78.8862 42.3617 78.8608 42.3904C78.8373 42.4208 78.8037 42.4416 78.7661 42.4493C78.7285 42.4569 78.6894 42.4508 78.656 42.432C78.6368 42.432 76.5184 41.2384 74.9312 41.6512C73.4464 42.0384 72.192 42.8384 72.1024 43.168C72.4608 43.552 74.0448 45.0624 74.0608 45.088C74.0835 45.1098 74.0992 45.1378 74.106 45.1685C74.1129 45.1992 74.1105 45.2313 74.0992 45.2606C74.088 45.29 74.0683 45.3154 74.0427 45.3336C74.0171 45.3519 73.9866 45.3622 73.9552 45.3632C72.4448 45.4208 70.1984 45.6256 69.9296 45.8976C69.6782 46.1769 69.4846 46.5031 69.36 46.8576L71.3408 47.8816C71.373 47.8991 71.3985 47.9269 71.413 47.9606C71.4275 47.9942 71.4302 48.0318 71.4208 48.0672C71.4102 48.1027 71.388 48.1335 71.3579 48.155C71.3278 48.1764 71.2913 48.1872 71.2544 48.1856C71.2544 48.1856 71.2192 48.1728 71.1104 48.1728Z" fill="#263238"/>
<path d="M75.7248 47.0048C75.7248 47.0048 70.8672 51.8048 70.7936 52.5856C70.72 53.3664 72.896 65.7824 73.0336 66.2176C73.1712 66.6528 78.3264 69.9168 79.92 70.2784C81.5136 70.64 83.184 70.2048 83.6192 69.8432C84.0544 69.4816 88.2592 67.088 88.6944 65.1296C89.1296 63.1712 86.4 49.8304 86.08 49.3248C85.76 48.8192 78.9888 45.552 75.7248 47.0048Z" fill="white"/>
<path d="M81.1904 70.5728C80.7547 70.5744 80.3201 70.5283 79.8944 70.4353C78.3744 70.0897 73.072 66.8161 72.8896 66.2753C72.6912 65.6801 70.5632 53.3728 70.6336 52.5792C70.704 51.7856 74.7936 47.7025 75.6128 46.8961C75.6262 46.8819 75.6426 46.8709 75.6608 46.864C78.8864 45.4304 85.8528 48.5857 86.2208 49.2513C86.5216 49.7761 89.2928 63.1617 88.848 65.1713C88.4768 66.8449 85.5136 68.784 84.2496 69.6128C83.9904 69.7824 83.7888 69.9137 83.7184 69.9745C83.3568 70.2785 82.3264 70.5728 81.1904 70.5728ZM75.8176 47.1393C73.952 48.976 71.0016 52.0641 70.9536 52.6017C70.8896 53.3217 73.0112 65.6225 73.1936 66.1665C73.4176 66.5889 78.3648 69.7601 79.9648 70.1217C81.5648 70.4833 83.1392 70.0449 83.5264 69.7217C83.6096 69.6513 83.7984 69.5264 84.0864 69.3376C85.3184 68.5312 88.2048 66.6433 88.5472 65.0945C88.9664 63.2129 86.2432 49.9457 85.9552 49.4145C85.6864 49.0017 79.04 45.7601 75.8176 47.1393Z" fill="#263238"/>
<path d="M75.7248 47.0048C75.7248 47.0048 77.408 47.8368 78.1024 48.1472C78.7968 48.4576 79.5648 47.376 79.5648 47.376C79.5648 47.376 85.5264 49.4208 86.0928 49.3248C86.6592 49.2288 84.4928 46.9888 82.2528 46.1408C80.0128 45.2928 75.7376 45.3984 75.7248 47.0048Z" fill="#263238"/>
<path d="M86.0608 49.4848C85.2896 49.4848 80.8 47.968 79.6224 47.5648C79.3984 47.84 78.7136 48.592 78.0224 48.2944C77.3312 47.9968 75.6576 47.1552 75.6416 47.1456C75.6147 47.1324 75.592 47.1119 75.5762 47.0865C75.5603 47.061 75.5519 47.0316 75.552 47.0016C75.5585 46.8128 75.6127 46.6287 75.7095 46.4664C75.8063 46.3042 75.9425 46.169 76.1056 46.0736C77.3856 45.2064 80.5376 45.3184 82.3104 45.9936C84.2752 46.7392 86.3872 48.6688 86.3296 49.248C86.325 49.3063 86.3006 49.3613 86.2604 49.4038C86.2203 49.4463 86.1667 49.4737 86.1088 49.4816L86.0608 49.4848ZM79.5648 47.216C79.5828 47.213 79.6012 47.213 79.6192 47.216C81.8304 47.9744 85.4304 49.136 86.0192 49.1584C85.8848 48.72 84.1568 47.0208 82.2112 46.2784C80.5216 45.6384 77.4624 45.5328 76.304 46.3264C76.1993 46.3869 76.1086 46.469 76.038 46.5672C75.9674 46.6654 75.9185 46.7775 75.8944 46.896C76.2624 47.0752 77.5808 47.728 78.1696 47.9872C78.64 48.1952 79.2448 47.5392 79.4496 47.2704C79.4638 47.2536 79.4814 47.2401 79.5013 47.2307C79.5212 47.2213 79.5428 47.2163 79.5648 47.216Z" fill="#263238"/>
<path d="M80.1728 60.7296C80.1313 60.733 80.0895 60.733 80.048 60.7296L79.6416 60.6624C79.3539 60.7094 79.0628 60.7329 78.7712 60.7328C78.5785 60.7197 78.3952 60.6443 78.2492 60.5178C78.1031 60.3914 78.0022 60.2209 77.9616 60.032C77.9528 59.9909 77.9602 59.948 77.9823 59.9122C78.0044 59.8765 78.0393 59.8506 78.08 59.84C78.1207 59.8303 78.1636 59.8369 78.1995 59.8584C78.2354 59.88 78.2614 59.9147 78.272 59.9552C78.272 59.9744 78.3968 60.416 78.7712 60.416C79.0522 60.417 79.3327 60.3935 79.6096 60.3456H79.68L80.1152 60.416C80.5024 60.4832 81.3376 60.0672 81.3952 59.8848C81.4528 59.7024 81.0336 57.8496 80.7552 56.5088C80.4352 54.9344 80.2304 53.9488 80.2304 53.76C80.2304 53.2864 81.1136 52.3168 81.2896 52.128C81.3201 52.0985 81.3608 52.082 81.4032 52.082C81.4456 52.082 81.4864 52.0985 81.5168 52.128C81.5318 52.1429 81.5437 52.1606 81.5518 52.1801C81.56 52.1996 81.5641 52.2205 81.5641 52.2416C81.5641 52.2627 81.56 52.2836 81.5518 52.3031C81.5437 52.3226 81.5318 52.3403 81.5168 52.3552C81.1136 52.7872 80.5568 53.5136 80.5568 53.7696C80.5568 53.9488 80.832 55.28 81.0752 56.4544C81.5904 58.9472 81.7536 59.8048 81.7152 59.9744C81.6 60.32 80.6848 60.7296 80.1728 60.7296Z" fill="#263238"/>
<path d="M81.7824 60.0928C81.6859 60.092 81.5896 60.0834 81.4944 60.0672C81.4738 60.063 81.4542 60.0548 81.4368 60.0431C81.4194 60.0313 81.4045 60.0162 81.3929 59.9987C81.3813 59.9811 81.3733 59.9615 81.3693 59.9409C81.3653 59.9202 81.3654 59.899 81.3696 59.8784C81.3734 59.8576 81.3814 59.8378 81.393 59.8202C81.4047 59.8025 81.4198 59.7874 81.4374 59.7758C81.455 59.7641 81.4748 59.7561 81.4956 59.7523C81.5164 59.7485 81.5378 59.749 81.5584 59.7536C81.7383 59.7935 81.926 59.7767 82.096 59.7056C82.1331 59.6789 82.1584 59.6387 82.1664 59.5936L82.2368 59.1584C82.2446 59.1167 82.2684 59.0797 82.303 59.0552C82.3377 59.0307 82.3805 59.0207 82.4224 59.0272C82.4431 59.0303 82.463 59.0375 82.4809 59.0484C82.4987 59.0594 82.5143 59.0737 82.5265 59.0907C82.5387 59.1077 82.5474 59.127 82.5521 59.1474C82.5567 59.1679 82.5573 59.189 82.5536 59.2096L82.48 59.6448C82.4695 59.7089 82.4462 59.7703 82.4116 59.8252C82.3769 59.8802 82.3317 59.9276 82.2784 59.9648C82.1292 60.0552 81.9567 60.0997 81.7824 60.0928Z" fill="#263238"/>
<path d="M79.6384 60.6496C79.6062 60.6499 79.5748 60.6398 79.5488 60.6208C79.3716 60.4838 79.2424 60.2942 79.1797 60.0792C79.117 59.8641 79.1241 59.6348 79.2 59.424C79.2047 59.4019 79.214 59.381 79.2274 59.3628C79.2408 59.3446 79.2578 59.3293 79.2775 59.3182C79.2971 59.307 79.3189 59.3001 79.3415 59.298C79.364 59.2959 79.3867 59.2986 79.4081 59.3058C79.4295 59.3131 79.4491 59.3249 79.4656 59.3403C79.4822 59.3557 79.4952 59.3744 79.504 59.3953C79.5128 59.4161 79.517 59.4386 79.5165 59.4612C79.5159 59.4838 79.5106 59.506 79.5008 59.5264C79.4468 59.6725 79.4403 59.8319 79.4823 59.9819C79.5242 60.1319 79.6124 60.2648 79.7344 60.3616C79.7613 60.3818 79.7811 60.4099 79.7911 60.4419C79.8011 60.474 79.8008 60.5084 79.7902 60.5402C79.7796 60.5721 79.7592 60.5998 79.732 60.6194C79.7047 60.6391 79.672 60.6496 79.6384 60.6496Z" fill="#263238"/>
<path d="M78.336 65.072C78.2964 65.0721 78.258 65.0585 78.2272 65.0336C78.1977 65.0032 78.1812 64.9624 78.1812 64.92C78.1812 64.8776 78.1977 64.8369 78.2272 64.8064C78.2528 64.7776 80.7264 62.0512 83.5552 63.168C83.5747 63.1758 83.5925 63.1874 83.6076 63.202C83.6227 63.2167 83.6347 63.2342 83.6431 63.2535C83.6514 63.2728 83.6558 63.2936 83.6561 63.3146C83.6564 63.3356 83.6526 63.3565 83.6448 63.376C83.637 63.3956 83.6255 63.4134 83.6108 63.4285C83.5961 63.4436 83.5787 63.4556 83.5593 63.4639C83.54 63.4722 83.5193 63.4767 83.4982 63.477C83.4772 63.4773 83.4563 63.4734 83.4368 63.4656C80.816 62.432 78.4896 64.992 78.4672 65.0208C78.4507 65.0388 78.4303 65.0528 78.4075 65.0616C78.3848 65.0705 78.3603 65.0741 78.336 65.072Z" fill="#263238"/>
<path d="M73.3312 55.0816C73.2927 55.082 73.2546 55.0744 73.2192 55.0592C73.1406 55.0291 73.0771 54.9692 73.0423 54.8925C73.0076 54.8159 73.0044 54.7286 73.0336 54.6496C73.3747 53.8263 73.9458 53.1186 74.6784 52.6112C75.9008 51.7952 78.0192 52.7616 78.1088 52.8032C78.147 52.8211 78.1814 52.8463 78.2099 52.8774C78.2384 52.9086 78.2605 52.945 78.2749 52.9847C78.2893 53.0244 78.2957 53.0665 78.2939 53.1086C78.292 53.1508 78.2819 53.1922 78.264 53.2304C78.2461 53.2687 78.2209 53.303 78.1898 53.3315C78.1587 53.36 78.1222 53.3821 78.0825 53.3965C78.0429 53.4109 78.0008 53.4174 77.9586 53.4155C77.9164 53.4136 77.875 53.4035 77.8368 53.3856C77.3184 53.1424 75.7984 52.6304 75.0336 53.1424C74.4143 53.5777 73.9289 54.1773 73.632 54.8736C73.6091 54.9349 73.568 54.9876 73.5142 55.0248C73.4605 55.062 73.3966 55.0818 73.3312 55.0816Z" fill="#263238"/>
<path d="M86.0224 53.7056C85.964 53.7061 85.9065 53.6905 85.8563 53.6606C85.8061 53.6307 85.765 53.5876 85.7376 53.536C85.3749 52.9184 84.8212 52.4355 84.16 52.16C83.8748 52.0566 83.5673 52.0299 83.2686 52.0827C82.9698 52.1355 82.6901 52.2659 82.4576 52.4608C82.4264 52.4894 82.3898 52.5115 82.35 52.5259C82.3102 52.5402 82.268 52.5465 82.2257 52.5445C82.1835 52.5424 82.142 52.5319 82.1038 52.5137C82.0656 52.4955 82.0314 52.4699 82.0032 52.4384C81.9465 52.3756 81.917 52.2928 81.9212 52.2082C81.9254 52.1236 81.9629 52.0442 82.0256 51.9872C82.3455 51.7132 82.7326 51.5294 83.1471 51.4546C83.5616 51.3798 83.9885 51.4167 84.384 51.5616C85.1913 51.8905 85.8666 52.478 86.304 53.232C86.3241 53.2692 86.3367 53.31 86.341 53.352C86.3454 53.394 86.3413 53.4365 86.3291 53.477C86.3169 53.5174 86.2968 53.5551 86.27 53.5877C86.2431 53.6204 86.2101 53.6474 86.1728 53.6672C86.1266 53.6922 86.0749 53.7054 86.0224 53.7056Z" fill="#263238"/>
<path d="M76.56 56.9376C76.8604 56.9376 77.104 56.5967 77.104 56.176C77.104 55.7554 76.8604 55.4144 76.56 55.4144C76.2595 55.4144 76.016 55.7554 76.016 56.176C76.016 56.5967 76.2595 56.9376 76.56 56.9376Z" fill="#263238"/>
<path d="M83.5936 55.088C83.5936 55.5072 83.3472 55.8496 83.0496 55.8496C82.752 55.8496 82.5056 55.5072 82.5056 55.088C82.5056 54.6688 82.7488 54.3264 83.0496 54.3264C83.3504 54.3264 83.5936 54.6688 83.5936 55.088Z" fill="#263238"/>
<path d="M71.68 57.8784C71.68 57.8784 70.304 55.9232 69.6512 57.4432C68.9984 58.9632 69.6512 60.1984 70.2912 61.216C70.9312 62.2336 72.32 62.7392 72.32 62.7392L71.68 57.8784Z" fill="white"/>
<path d="M72.32 62.8992C72.302 62.9025 72.2836 62.9025 72.2656 62.8992C72.208 62.88 70.8288 62.3616 70.1568 61.2992C69.424 60.16 68.8384 58.8992 69.4912 57.3792C69.5406 57.2091 69.6361 57.056 69.7671 56.9369C69.8982 56.8177 70.0596 56.7371 70.2336 56.704C70.96 56.6304 71.7152 57.664 71.7984 57.7856C71.8144 57.8059 71.8244 57.8303 71.8272 57.856L72.4672 62.7136C72.4702 62.7413 72.4662 62.7692 72.4555 62.795C72.4449 62.8207 72.428 62.8433 72.4064 62.8608C72.382 62.8818 72.3519 62.8952 72.32 62.8992ZM70.3104 57.024H70.2656C70.0736 57.0432 69.9136 57.2064 69.7856 57.504C69.1616 58.9568 69.7856 60.1344 70.4256 61.1264C70.8644 61.7172 71.4502 62.1827 72.1248 62.4768L71.5136 57.936C71.3024 57.6544 70.7456 57.024 70.3072 57.024H70.3104Z" fill="#263238"/>
<path d="M87.8336 55.488C87.8336 55.488 87.9776 54.1088 88.56 54.2528C89.1424 54.3968 90.2272 55.488 89.5744 57.008C88.9216 58.528 88.2688 60.128 88.2688 60.128L87.68 57.1553L87.8336 55.488Z" fill="white"/>
<path d="M88.2688 60.288C88.2344 60.2839 88.2023 60.269 88.177 60.2454C88.1517 60.2218 88.1345 60.1908 88.128 60.1568L87.5488 57.184C87.5471 57.1691 87.5471 57.1541 87.5488 57.1392L87.6928 55.472C87.6928 55.3696 87.8112 54.4608 88.2176 54.176C88.2749 54.1354 88.3404 54.1078 88.4095 54.0951C88.4785 54.0824 88.5496 54.0849 88.6176 54.1024C88.861 54.1897 89.0846 54.3247 89.2752 54.4994C89.4659 54.6741 89.6198 54.8851 89.728 55.12C89.8758 55.4247 89.9526 55.759 89.9526 56.0976C89.9526 56.4363 89.8758 56.7705 89.728 57.0752C89.088 58.5792 88.4288 60.176 88.4224 60.192C88.4099 60.2219 88.3883 60.2472 88.3608 60.2644C88.3333 60.2816 88.3012 60.2899 88.2688 60.288ZM87.8496 57.1456L88.3232 59.5744C88.5696 58.9824 88.9984 57.9424 89.4272 56.9472C89.5532 56.684 89.6187 56.3959 89.6187 56.104C89.6187 55.8122 89.5532 55.524 89.4272 55.2608C89.2501 54.8694 88.9259 54.5635 88.5248 54.4096C88.501 54.4024 88.4758 54.401 88.4513 54.4054C88.4268 54.4099 88.4037 54.4201 88.384 54.4352C88.1696 54.5856 88.032 55.168 87.9968 55.5008L87.8496 57.1456Z" fill="#263238"/>
<path d="M150.269 144.179H16.1408C16.0984 144.179 16.0577 144.162 16.0277 144.132C15.9977 144.102 15.9808 144.062 15.9808 144.019C15.9808 143.977 15.9977 143.936 16.0277 143.906C16.0577 143.876 16.0984 143.859 16.1408 143.859H150.269C150.311 143.859 150.352 143.876 150.382 143.906C150.412 143.936 150.429 143.977 150.429 144.019C150.428 144.061 150.411 144.102 150.381 144.131C150.351 144.161 150.311 144.178 150.269 144.179Z" fill="#263238"/>
</svg>
